<?xml version="1.0" standalone="no"?>
<!DOCTYPE svg PUBLIC "-//W3C//DTD SVG 20010904//EN"
 "http://www.w3.org/TR/2001/REC-SVG-20010904/DTD/svg10.dtd">
<svg version="1.0" xmlns="http://www.w3.org/2000/svg"
 width="1440.000000pt" height="1440.000000pt" viewBox="0 0 1440.000000 1440.000000"
 preserveAspectRatio="xMidYMid meet">
<metadata>
Created by potrace 1.11, written by Peter Selinger 2001-2013
</metadata>
<g transform="translate(0.000000,1440.000000) scale(0.100000,-0.100000)"
fill="#000000" stroke="none">
<path d="M3 11638 c3 -1520 4 -2767 4 -2773 0 -5 -2 -2002 -4 -4438 l-3 -4427
4572 0 4571 0 -6 358 c-4 196 -7 537 -7 757 l0 400 -120 116 -120 117 -7 490
-6 491 -154 152 -153 152 0 303 0 304 -175 173 -175 172 -1 130 c-1 82 -4 119
-9 100 l-8 -30 -1 28 c-1 26 -3 27 -51 27 l-50 0 0 69 c0 39 -4 73 -10 76 -5
3 -11 -4 -11 -17 -1 -17 -3 -18 -6 -5 -10 38 -23 2 -23 -64 0 -55 -3 -69 -15
-69 -13 0 -15 -31 -15 -216 l0 -217 77 -78 77 -77 -2 -914 c-1 -502 -5 -991
-9 -1086 l-6 -174 147 -147 147 -147 -7 -322 -7 -322 -184 -180 c-200 -198
-275 -241 -91 -52 62 63 122 125 133 137 11 13 40 43 63 68 l44 45 -1 307 -2
307 -141 137 -140 136 -6 1092 -5 1091 -78 78 -79 79 -2 290 c0 159 -4 268 -7
240 -5 -39 -8 -19 -14 90 -5 77 -11 150 -14 163 -10 43 -20 22 -22 -46 -2 -98
-5 -107 -30 -105 -26 3 -27 -10 -2 -28 15 -10 18 -21 14 -41 -5 -25 -6 -26
-22 -10 -10 9 -21 25 -24 35 -4 9 -13 17 -22 17 -8 0 -15 5 -15 10 0 6 -13 10
-29 10 -16 0 -31 4 -33 9 -1 4 -13 12 -25 15 -17 6 -23 3 -23 -8 0 -20 -16
-21 -24 -1 -3 8 -15 15 -26 15 -11 0 -20 7 -20 15 0 8 -9 15 -20 15 -11 0 -20
-4 -20 -10 0 -5 -4 -10 -10 -10 -5 0 -10 5 -10 11 0 6 -6 17 -14 25 -8 7 -16
19 -18 26 -3 7 -20 12 -42 11 -29 -1 -40 3 -43 17 -3 10 -16 23 -29 30 -13 8
-24 17 -24 22 0 4 -15 8 -34 8 -34 0 -46 13 -46 47 0 12 9 14 39 11 30 -2 41
1 44 12 3 12 -12 16 -87 18 -50 2 -95 7 -100 13 -6 5 -23 9 -38 9 -25 0 -33 9
-29 33 0 4 -82 7 -184 7 l-184 0 -82 -78 -82 -78 -5 -805 -5 -805 27 -17 c15
-10 34 -33 43 -52 14 -29 14 -41 4 -75 -21 -72 -102 -101 -168 -60 -69 42 -60
163 14 191 l24 9 -1 820 -1 820 105 105 106 105 122 0 c242 0 438 12 438 27 0
10 -20 13 -77 14 -43 1 -87 2 -98 3 -11 1 -55 3 -98 4 -44 1 -76 6 -73 11 4 5
-4 7 -16 3 -14 -3 -19 -2 -14 6 4 7 14 12 23 12 9 0 13 6 9 15 -3 9 2 37 10
63 13 37 16 90 16 259 0 200 -1 214 -21 239 -22 28 -28 74 -10 74 6 0 39 -25
72 -55 55 -49 67 -55 107 -55 60 -1 79 -17 95 -87 11 -48 12 -62 0 -85 -11
-23 -11 -28 2 -32 8 -3 12 -10 9 -15 -3 -4 3 -16 14 -26 11 -10 20 -16 20 -13
0 3 35 -4 78 -16 76 -21 77 -22 86 -61 13 -59 50 -155 59 -155 5 0 5 -5 2 -10
-7 -11 43 8 60 22 12 10 62 10 69 0 2 -4 1 -14 -4 -22 -5 -9 -5 -19 1 -26 19
-23 259 3 307 34 12 8 22 24 22 38 0 12 5 26 11 29 13 9 46 -20 53 -48 9 -36
52 -52 133 -49 61 2 73 6 78 22 8 24 42 26 66 4 40 -36 136 33 158 113 6 21
11 125 11 231 0 214 2 221 64 189 17 -10 55 -22 85 -27 66 -12 84 -27 100 -83
28 -95 77 -138 173 -152 26 -4 54 -12 63 -19 9 -6 24 -46 35 -88 23 -93 43
-133 72 -149 18 -10 20 -9 15 5 -5 13 -2 15 21 10 15 -3 33 -15 41 -25 11 -15
26 -19 77 -19 37 0 64 4 64 10 0 6 10 15 23 19 16 7 25 5 34 -7 12 -14 18 -14
66 6 64 27 60 27 125 0 43 -18 57 -20 72 -10 27 16 57 15 64 -3 3 -10 19 -15
45 -15 25 0 41 5 45 15 7 20 46 19 61 -1 16 -22 135 -21 148 1 10 19 53 19 61
0 8 -22 198 -22 216 0 16 19 49 19 56 0 8 -20 70 -20 78 0 7 19 52 19 60 0 8
-22 141 -22 150 0 7 19 45 19 52 0 5 -11 23 -15 74 -15 51 0 69 4 74 15 7 18
63 20 68 3 7 -20 54 6 70 39 18 38 43 41 60 7 22 -45 161 -82 188 -49 16 19
44 19 59 1 7 -8 29 -16 51 -18 31 -3 40 0 43 14 7 24 49 23 65 -2 15 -24 60
-23 73 2 12 22 48 23 63 3 7 -11 35 -18 83 -22 65 -5 72 -4 82 16 15 27 47 27
62 -1 l12 -22 17 22 c23 28 57 29 65 2 6 -19 15 -20 152 -20 133 0 146 2 161
20 15 18 29 20 144 21 110 1 131 4 152 20 35 28 49 102 44 239 -5 150 -26 201
-93 231 -44 19 -62 20 -490 17 -442 -4 -446 -4 -450 17 -2 11 -6 214 -8 450
l-3 430 -25 45 -24 45 -6 -195 c-4 -107 -7 -212 -8 -232 -1 -33 -4 -38 -26
-38 l-25 0 0 -300 0 -300 510 0 510 0 0 -130 0 -130 -638 0 -639 0 -6 173 c-4
94 -7 280 -8 412 0 242 -5 280 -30 280 -11 0 -16 42 -23 221 l-8 221 -23 -5
c-13 -2 -32 1 -43 7 -20 11 -21 9 -24 -149 -2 -128 -6 -162 -19 -175 -14 -14
-72 -16 -496 -15 -264 0 -488 -2 -497 -6 -12 -4 -16 -19 -16 -55 0 -46 -2 -49
-25 -49 -22 0 -25 -4 -25 -40 l0 -40 383 -2 382 -3 3 -132 3 -133 -386 0 -385
0 0 -125 0 -125 510 0 510 0 0 -130 0 -130 -642 2 -643 3 -6 425 c-3 234 -7
426 -7 428 -1 1 -11 2 -21 2 -17 0 -19 12 -26 152 -4 84 -5 188 -3 231 1 42 2
77 0 77 -1 0 -11 -5 -21 -12 -15 -9 -25 -9 -45 0 l-26 12 0 -118 c0 -64 -3
-168 -7 -229 -5 -97 -8 -113 -23 -113 -15 0 -18 -18 -23 -152 -4 -83 -7 -276
-7 -430 l0 -278 -130 0 -130 0 0 125 0 125 -130 0 -130 0 0 130 0 130 -130 0
-130 0 0 125 0 125 -120 0 -120 0 0 -228 c0 -126 -3 -297 -7 -381 l-6 -152
-126 3 -126 3 -6 390 c-8 509 -5 465 -28 465 -17 0 -20 11 -26 123 -4 67 -5
173 -4 235 4 112 -2 134 -23 87 -15 -32 -31 -32 -57 3 l-21 27 6 -32 c4 -18 3
-125 -1 -238 -7 -192 -8 -205 -26 -205 -10 0 -20 -6 -20 -12 -1 -7 -5 -200 -8
-428 l-6 -415 -127 -3 -128 -3 0 126 0 125 -130 0 -130 0 0 130 0 130 -130 0
-130 0 0 125 0 125 -118 0 -119 0 -6 -272 c-4 -149 -7 -320 -7 -380 l0 -108
-130 0 -130 0 0 248 c0 137 -3 331 -7 430 -6 168 -8 182 -25 182 -10 0 -19 8
-19 18 -1 9 -4 105 -8 212 -3 107 -10 195 -15 195 -5 0 -14 -13 -20 -30 -21
-57 -68 -126 -98 -141 l-30 -16 31 -19 31 -19 0 -100 c0 -93 -1 -100 -20 -100
-11 0 -21 -1 -22 -2 -1 -2 -4 -194 -7 -428 l-6 -425 -126 -3 -126 -3 -6 182
c-4 100 -7 215 -7 256 l0 73 -380 0 -380 0 0 -255 0 -255 -130 0 -130 0 0 183
c0 100 -3 293 -7 430 -6 224 -8 247 -23 247 -20 0 -30 43 -30 132 0 49 3 59
26 77 18 14 41 21 73 21 l46 0 -4 176 c-1 97 0 196 4 220 5 38 10 44 30 44 21
0 25 -6 31 -46 11 -73 -5 -345 -22 -371 -14 -23 -14 -23 31 -23 l46 0 -3 110
c-3 94 -1 112 15 127 16 16 46 19 285 23 147 3 259 7 250 8 -23 3 -108 30
-135 44 -31 16 -29 27 18 73 22 22 54 69 70 105 17 36 35 72 39 81 5 9 6 35 3
57 -9 66 2 92 40 93 24 1 26 3 9 6 -13 3 -28 15 -34 28 -6 13 -22 25 -39 29
-41 8 -41 50 -1 64 16 5 29 16 30 23 6 90 7 448 0 461 -8 17 -10 17 -33 2 -25
-16 -25 -16 -25 12 0 57 54 113 109 114 33 0 33 0 17 -25 -18 -27 -21 -55 -6
-55 6 0 10 6 10 13 0 8 3 8 9 -2 8 -12 13 -12 24 -3 14 12 116 18 414 26 128
4 143 2 158 -14 10 -11 14 -24 10 -29 -3 -7 3 -11 15 -11 31 0 36 -29 13 -69
-18 -31 -20 -49 -17 -121 5 -107 19 -160 51 -195 47 -50 82 -58 265 -59 211
-1 202 6 206 -150 1 -77 7 -124 17 -143 8 -15 15 -36 15 -46 0 -11 6 -33 14
-50 8 -18 16 -41 18 -51 7 -42 63 -60 196 -64 108 -4 126 -2 134 12 11 20 42
21 58 1 16 -19 66 -19 74 0 6 17 42 20 51 5 10 -17 84 -11 124 10 47 23 77 60
92 109 7 23 9 131 7 298 l-3 261 -25 24 c-14 13 -34 37 -46 54 l-21 29 -149 1
c-164 2 -228 9 -250 31 -11 11 -14 47 -14 163 0 182 -11 239 -54 284 -24 26
-40 34 -68 34 -19 0 -44 4 -54 10 -24 13 -304 19 -323 8 -22 -14 -31 13 -31
98 0 75 1 78 21 73 12 -3 28 0 36 9 8 8 31 14 51 15 177 3 227 9 244 29 18 22
48 26 66 8 17 -17 61 19 89 73 20 38 24 68 31 206 6 132 11 165 25 181 15 17
37 20 170 25 176 7 215 16 261 61 48 48 56 97 63 360 5 202 4 235 -10 261 -21
38 -56 79 -62 73 -3 -2 -8 -129 -12 -282 -5 -243 -8 -280 -24 -299 -17 -21
-26 -22 -256 -27 l-238 -5 -3 -107 c-3 -105 -3 -108 -26 -108 -22 0 -23 -3
-29 -111 -4 -60 -9 -114 -12 -120 -4 -5 -111 -9 -256 -9 l-249 0 0 -250 0
-250 255 0 255 0 0 -260 0 -260 254 0 c172 0 257 -4 262 -11 3 -6 3 -121 -1
-255 l-7 -244 -253 0 -252 0 -7 37 c-3 21 -6 136 -6 256 l0 217 -255 0 -255 0
0 255 0 255 -515 0 -515 0 -2 -507 -3 -508 -256 -3 -256 -2 -7 847 c-4 467 -9
865 -12 886 -4 27 -11 37 -23 37 -16 0 -19 15 -24 128 -4 70 -7 259 -7 420 0
279 1 293 20 312 20 20 31 20 312 18 l291 -3 19 -26 c19 -25 19 -40 12 -437
-6 -382 -8 -412 -24 -412 -23 0 -30 -28 -30 -127 l0 -83 505 0 505 0 0 53 c0
96 -11 155 -30 160 -15 4 -18 23 -23 158 -4 125 -2 158 10 177 16 27 2 55 -23
45 -8 -3 -14 0 -14 6 0 6 -7 8 -15 5 -8 -4 -13 -9 -10 -14 2 -4 -4 -16 -14
-26 -16 -17 -26 -43 -38 -94 -1 -8 -4 -73 -4 -145 l-2 -130 28 3 27 3 -7 -53
c-4 -29 -12 -59 -17 -65 -18 -22 -38 -14 -45 18 -5 26 -7 29 -16 14 -8 -14
-18 -16 -64 -10 -53 6 -54 6 -41 -14 18 -29 7 -33 -41 -16 -37 13 -47 13 -84
0 -47 -16 -56 -12 -38 16 7 12 10 23 8 26 -7 7 -181 8 -192 1 -16 -9 -139 -9
-154 1 -21 13 20 45 67 51 30 4 38 10 40 30 5 35 41 72 64 64 18 -5 21 -1 22
44 1 23 66 75 66 53 0 -6 5 -11 11 -11 7 0 9 10 5 25 -5 18 -2 25 9 25 8 0 15
6 15 13 0 27 26 66 48 72 12 3 22 12 22 20 0 8 4 15 10 15 5 0 7 -7 4 -15 -4
-8 -1 -15 6 -15 6 0 9 4 5 9 -3 5 -1 12 4 15 4 3 11 19 14 36 5 23 12 30 29
30 17 0 19 -3 10 -12 -7 -7 -12 -19 -12 -27 1 -13 3 -13 15 3 7 10 18 15 24
11 6 -3 11 -2 11 2 0 5 14 17 30 26 40 24 38 40 -3 35 -30 -3 -33 -1 -29 17 3
11 13 32 24 47 10 14 18 31 18 37 0 6 11 11 24 11 13 0 26 6 29 13 2 6 5 106
6 222 l2 209 -31 26 c-76 62 -33 190 65 190 97 0 141 -128 65 -190 l-30 -25 6
-188 c4 -103 11 -190 16 -193 4 -3 8 -14 8 -25 0 -10 5 -19 10 -19 14 0 12 13
-5 36 -8 10 -14 26 -14 34 0 12 2 12 13 -2 7 -10 24 -17 37 -17 17 1 19 3 7 6
-25 6 -22 33 3 33 11 0 17 5 14 10 -3 6 -17 7 -31 4 -29 -7 -31 5 -4 32 34 34
49 44 65 44 18 0 54 38 55 57 0 7 11 16 26 19 27 7 54 -17 53 -46 -1 -11 -3
-10 -6 3 -7 26 -23 21 -23 -8 0 -16 -6 -25 -15 -25 -8 0 -15 -5 -15 -11 0 -7
10 -9 25 -7 15 3 25 1 24 -6 -3 -23 1 -36 12 -36 9 0 7 16 -8 58 -3 6 2 12 11
12 18 0 19 2 7 53 -5 21 -5 37 0 37 5 0 9 7 9 15 0 8 4 15 10 15 5 0 6 7 3 17
-4 11 -3 14 5 9 7 -4 12 -2 12 3 0 6 7 11 16 11 11 0 14 6 8 22 -6 21 -5 22
11 8 14 -11 19 -12 22 -2 6 15 35 16 51 0 9 -9 13 -7 18 7 5 11 1 22 -9 30
-22 16 -22 24 1 23 37 -3 68 12 85 42 19 32 37 32 37 -1 0 -10 5 -19 11 -19 5
0 9 10 7 22 -4 26 71 88 107 88 13 0 25 5 27 11 2 7 29 12 68 12 l65 0 -48 11
c-46 11 -55 26 -15 26 10 0 17 6 16 13 -2 8 11 12 40 13 l42 1 -6 -33 c-6 -30
-4 -34 16 -34 18 0 21 4 17 21 -4 17 -3 18 9 8 12 -9 13 -9 9 2 -3 8 -20 24
-38 37 -29 19 -46 22 -124 22 -78 0 -92 -3 -97 -17 -9 -28 -69 -63 -106 -63
-39 0 -94 34 -109 68 -30 65 5 142 77 165 23 8 45 11 47 6 3 -4 19 -10 35 -14
17 -4 30 -10 30 -13 0 -4 11 -19 24 -33 23 -25 26 -26 130 -21 80 3 106 2 106
-8 0 -7 7 -10 16 -6 8 3 12 2 9 -4 -3 -6 -1 -10 4 -10 6 0 11 -7 11 -15 0 -9
9 -15 23 -14 12 0 16 3 9 6 -9 3 -3 12 17 24 17 10 31 23 31 29 0 5 7 10 15
10 8 0 15 -7 15 -15 0 -11 12 -15 45 -15 25 0 45 4 45 8 0 12 47 32 75 32 14
0 25 5 25 10 0 6 19 11 43 11 23 1 33 4 23 6 -15 4 -16 7 -5 14 10 6 10 9 2 9
-7 0 -13 10 -13 23 0 17 9 26 35 36 23 8 35 19 35 31 0 16 4 18 24 11 17 -7
31 -5 55 10 17 10 31 23 31 29 0 5 5 10 10 10 6 0 10 -13 10 -30 0 -17 5 -30
13 -30 8 0 8 -3 -2 -9 -9 -6 -11 -15 -6 -27 8 -18 8 -18 12 -1 3 9 9 17 14 17
5 0 9 356 9 904 0 796 2 905 15 916 9 7 47 48 85 90 l70 77 -17 34 c-12 23
-18 57 -18 105 0 64 4 76 35 122 70 103 195 135 305 79 50 -25 55 -32 117
-160 22 -47 -33 -196 -87 -231 -62 -41 -176 -52 -230 -22 -44 23 -67 14 -142
-57 l-73 -70 0 -617 c0 -744 7 -1043 26 -1036 7 3 14 -3 16 -12 3 -15 6 -14
24 4 15 15 40 23 88 28 36 4 66 11 66 16 0 4 23 10 50 14 28 4 50 11 50 16 0
6 9 10 20 10 11 0 29 9 40 20 22 22 40 26 40 10 0 -16 25 -11 53 10 14 11 32
17 41 14 13 -5 16 1 16 26 0 18 4 29 10 25 7 -4 10 210 10 634 0 628 0 640
-20 646 -35 11 -60 54 -60 102 0 92 105 147 175 91 34 -26 56 -77 48 -109 -9
-35 -41 -77 -65 -85 l-21 -6 7 -572 c7 -633 11 -716 32 -716 8 0 14 5 14 10 0
6 18 10 40 10 22 0 40 5 40 10 0 6 7 10 15 10 8 0 15 -4 15 -10 0 -14 28 -12
32 2 3 8 27 13 70 13 37 0 70 3 74 8 4 4 15 7 25 7 9 0 19 7 23 15 3 8 15 15
26 15 16 0 20 -6 20 -34 0 -24 -5 -36 -17 -39 -17 -4 -17 -5 0 -6 12 -1 18
-10 19 -33 1 -18 3 -44 4 -58 1 -14 3 -31 3 -38 1 -7 6 -10 12 -7 6 4 7 19 4
36 -8 37 3 78 16 58 5 -8 9 305 9 741 l0 755 -159 159 -160 159 -56 1 c-51 1
-60 4 -86 34 -43 47 -41 102 5 148 29 29 41 34 81 34 39 0 52 -5 75 -30 33
-35 42 -72 28 -113 -10 -28 -7 -33 161 -201 l171 -171 1 -475 c1 -494 11 -893
24 -922 6 -15 9 -15 21 -3 8 7 14 21 14 30 0 15 2 15 15 1 8 -8 15 -19 15 -25
0 -8 6 -8 18 -2 9 6 34 13 55 16 50 8 47 23 -5 28 -34 3 -33 4 7 2 82 -3 350
17 353 26 2 5 96 9 208 9 215 0 212 1 205 -42 0 -4 20 -6 45 -5 25 2 48 -1 50
-5 8 -13 -121 -9 -134 4 -9 9 -12 9 -12 -2 0 -13 -2 -13 -10 0 -7 12 -36 16
-130 19 -105 3 -120 1 -120 -13 0 -12 12 -16 53 -18 l52 -1 -55 -7 -55 -7 58
-1 c32 -1 57 2 57 8 0 6 20 10 45 10 25 0 45 -3 45 -7 0 -5 57 -5 127 -2 71 3
133 3 138 -1 6 -4 23 -10 39 -14 23 -6 27 -11 23 -29 l-6 -22 18 22 c10 12 21
19 25 16 6 -6 10 12 7 30 -1 5 3 6 9 2 5 -3 141 124 301 282 619 613 804 796
827 814 24 18 42 19 436 13 l411 -5 745 -744 745 -744 248 -3 247 -3 0 78 0
78 -166 -1 -166 -2 -781 786 -782 786 -511 0 -511 0 -539 -546 -539 -545 3
-48 c3 -39 -1 -53 -22 -78 -32 -38 -20 -53 46 -53 49 0 66 -17 28 -27 -11 -3
-20 -10 -20 -15 0 -13 -43 1 -52 17 -5 7 -18 11 -30 9 -19 -4 -20 -3 -5 4 17
7 17 9 3 21 -11 9 -20 10 -33 2 -13 -7 -14 -10 -4 -11 29 0 0 -13 -46 -20 -61
-10 -81 -3 -53 17 28 19 26 43 -2 36 -17 -3 -19 -2 -10 5 12 8 11 14 -1 38
-38 75 21 160 105 152 l39 -4 557 553 557 553 530 0 530 0 785 -785 785 -785
152 0 153 0 0 81 0 80 -126 -2 -126 -2 -261 260 c-700 694 -1211 1200 -1297
1282 l-95 91 -540 0 -540 0 -112 -110 -112 -110 -248 0 -248 0 -320 315 -320
315 -160 0 -160 0 -153 153 -152 153 0 370 c1 311 3 374 16 392 8 12 47 48 87
80 l72 59 -3 47 c-4 40 0 49 26 76 58 58 158 33 178 -44 8 -33 -1 -65 -27 -96
-19 -22 -29 -25 -95 -25 -54 0 -77 -5 -86 -16 -7 -8 -37 -35 -65 -58 l-53 -43
0 -362 0 -362 138 -137 139 -137 164 -1 164 0 320 -314 320 -315 216 0 216 0
114 110 114 109 570 0 570 0 160 -156 c88 -85 387 -379 665 -652 278 -273 577
-567 665 -654 l160 -157 113 0 112 0 0 50 0 50 -82 0 c-46 0 -88 4 -95 8 -13
8 -470 459 -1165 1149 l-476 473 -609 0 -608 0 -112 -110 -112 -110 -177 0
-177 0 -449 448 -449 447 -41 -3 c-80 -7 -128 34 -128 108 0 76 79 128 146 97
50 -24 67 -58 62 -117 l-5 -50 216 -211 c119 -117 317 -313 441 -436 l226
-223 159 0 159 0 110 109 111 108 265 -2 c146 -1 429 -3 630 -4 l365 -1 185
-182 c871 -857 1314 -1293 1372 -1351 73 -74 101 -87 185 -87 l53 0 0 40 0 40
-86 0 -86 0 -451 448 c-249 247 -618 612 -820 813 l-369 364 -59 5 c-32 3
-422 4 -866 2 l-808 -3 -20 -32 c-41 -64 -135 -55 -169 16 -15 32 -15 40 -2
70 30 72 101 88 159 37 l35 -30 868 0 869 -1 125 -121 c69 -67 364 -356 655
-643 960 -943 871 -859 918 -866 23 -4 56 -6 72 -5 27 1 30 5 33 39 3 30 0 37
-14 37 -17 0 -173 153 -1219 1192 l-460 458 -740 0 -739 0 -151 150 -151 149
-35 -11 c-72 -21 -139 36 -139 120 0 37 -1 38 -29 34 -36 -5 -114 23 -159 56
-39 29 -78 111 -88 180 -10 82 50 187 132 231 55 30 178 29 231 0 67 -37 114
-95 125 -154 2 -16 13 -21 53 -25 l50 -5 2 -134 1 -134 144 -144 143 -143 734
0 735 0 230 -227 c127 -126 355 -350 506 -499 206 -202 799 -786 836 -823 2
-2 4 27 4 65 l0 69 -112 115 c-61 63 -325 333 -587 600 -262 267 -556 565
-652 664 l-175 179 -718 -2 -718 -2 -134 132 -134 133 0 121 0 121 -74 73 -73
73 -154 -12 c-110 -8 -191 -8 -283 0 -71 5 -158 10 -192 10 l-64 0 0 -40 0
-40 -148 0 -148 0 -29 -30 c-22 -23 -38 -30 -66 -30 -51 0 -67 8 -84 41 -22
41 -18 73 11 108 20 25 34 31 64 31 41 0 85 -28 95 -61 6 -18 14 -19 128 -17
l122 3 3 36 c2 28 8 38 25 43 12 3 183 6 381 6 l359 0 88 -87 89 -87 0 -120 0
-121 113 -113 c63 -62 122 -115 133 -117 10 -2 336 -4 724 -5 l705 -1 475
-472 c262 -260 523 -524 580 -587 58 -63 182 -194 277 -290 l172 -175 1 70 0
69 -243 246 c-133 135 -360 364 -502 510 -143 146 -368 374 -500 508 l-239
242 -376 0 -375 0 -100 100 -100 100 -142 0 c-129 0 -142 -2 -147 -18 -13 -39
-55 -67 -103 -67 -121 0 -143 172 -26 204 47 13 97 -7 121 -49 l17 -30 155 0
155 -1 95 -94 95 -95 360 -1 c198 0 369 -2 380 -4 11 -2 132 -118 269 -257
137 -139 464 -471 728 -737 l478 -484 0 114 1 114 -693 687 -693 687 -350 1
-350 0 -155 155 -155 155 -178 0 -178 0 -87 85 -86 85 -256 0 -256 0 -45 50
-44 50 -52 -7 c-48 -5 -54 -4 -82 25 -26 25 -31 38 -31 77 0 40 5 52 31 76 36
34 76 38 120 12 37 -22 53 -62 45 -115 -6 -42 -5 -44 43 -85 l50 -43 248 0
248 0 87 -85 88 -85 177 0 178 0 150 -150 150 -150 350 0 350 0 125 -123 c368
-360 735 -721 978 -961 l272 -270 0 46 0 46 -672 666 -672 666 -336 0 -335 0
-175 175 -175 175 -193 0 -193 0 -77 75 -77 75 -146 0 -147 0 -160 160 -160
160 -220 0 -220 0 -44 -42 c-39 -38 -43 -45 -43 -90 0 -42 -4 -53 -28 -74 -55
-47 -132 -16 -144 58 -5 32 -1 41 26 69 30 29 36 31 81 26 43 -5 52 -3 68 16
10 12 30 32 44 45 25 23 28 23 262 22 l236 -1 157 -154 158 -154 150 -1 151 0
74 -75 74 -75 193 0 192 0 178 -175 178 -174 335 -1 335 0 110 -107 c124 -120
456 -445 905 -888 l305 -300 3 74 3 74 -623 618 -623 618 -356 0 -357 1 -253
251 c-140 138 -261 254 -270 258 -13 5 -9 10 17 28 18 11 31 16 28 9 -4 -11
328 -349 456 -465 l45 -40 353 -1 353 0 187 -177 c103 -97 378 -367 612 -600
l425 -423 3 108 3 107 -573 567 -573 567 -350 1 -350 0 -183 183 -183 183 2
94 c2 92 1 94 -28 120 -16 15 -32 36 -35 48 -6 21 -5 21 17 4 13 -9 31 -29 40
-45 9 -15 21 -25 26 -22 5 4 9 -32 9 -87 l0 -93 177 -172 178 -172 345 -1 345
0 65 -62 c36 -33 175 -170 310 -302 135 -133 360 -353 500 -491 l255 -250 3
112 3 112 -527 523 c-289 288 -532 526 -539 530 -7 5 -67 5 -133 1 -111 -5
-121 -8 -130 -28 -23 -50 -111 -65 -156 -26 -79 69 -39 191 64 191 41 0 94
-35 105 -70 8 -24 37 -30 164 -32 l104 -1 186 -181 c102 -100 309 -303 460
-452 152 -150 303 -297 336 -327 l60 -55 3 251 2 252 -204 200 c-171 168 -331
332 -465 479 l-26 29 35 -18 c47 -24 183 -147 443 -404 l217 -215 0 53 0 53
-110 111 c-61 61 -110 118 -110 126 0 8 -3 11 -7 8 -7 -8 -63 41 -63 55 0 18
27 6 40 -17 7 -14 15 -23 18 -21 2 3 54 -44 116 -104 l111 -109 3 91 c2 58 -1
95 -9 104 -8 10 -8 14 0 14 8 0 11 87 11 310 l0 310 -7200 0 -7201 0 4 -2762z
m7916 2080 l1 -467 30 -21 c56 -40 49 -127 -14 -156 -64 -31 -136 13 -136 82
0 28 7 43 34 68 l34 31 4 558 c3 478 6 559 18 567 22 14 27 -111 29 -662z
m5286 642 c6 -4 19 -10 30 -12 11 -2 -47 -8 -129 -12 -144 -7 -186 -15 -186
-37 0 -5 12 -27 26 -49 38 -58 43 -141 12 -200 -33 -60 -93 -101 -156 -108
-214 -20 -306 246 -127 367 47 31 54 33 117 28 62 -4 69 -2 90 20 l23 25 145
-7 c80 -4 150 -10 155 -15z m-1695 -45 c-18 -19 -36 -33 -38 -30 -3 2 -17 -15
-32 -38 -19 -29 -25 -47 -19 -59 28 -55 -15 -118 -81 -118 -37 0 -79 24 -81
48 0 4 -2 19 -4 34 -3 20 5 36 26 59 27 29 34 31 73 26 40 -6 45 -4 78 33 20
21 38 37 40 34 3 -2 11 7 18 21 8 14 22 25 34 25 17 0 16 -4 -14 -35z m283 28
c-29 -2 -78 -2 -110 0 -32 2 -8 3 52 3 61 0 87 -1 58 -3z m-3022 -88 c6 38 19
-783 19 -1169 l0 -291 425 -422 425 -423 2 -417 c1 -230 1 -433 0 -451 -1 -28
4 -36 33 -53 62 -37 71 -130 18 -183 -21 -21 -35 -26 -77 -26 -64 0 -89 17
-111 74 -16 42 -16 45 5 85 11 23 29 45 38 48 9 4 20 11 24 17 4 6 8 208 8
448 l0 438 -421 422 -420 423 5 329 c3 181 7 532 8 780 1 248 4 426 8 396 5
-44 7 -49 11 -25z m-3831 15 c11 0 147 -138 189 -191 19 -25 20 -39 22 -848
l2 -823 -147 -147 -146 -146 0 -114 0 -113 67 -69 c62 -65 69 -69 107 -67 57
2 102 -24 116 -67 25 -75 -24 -145 -102 -145 -77 0 -132 87 -97 152 10 18 3
29 -60 92 l-71 71 0 145 0 144 143 143 144 143 6 211 c4 117 7 480 7 808 l-1
596 -57 61 c-64 68 -130 142 -150 167 -8 9 -10 22 -6 28 5 9 10 6 15 -9 5 -12
13 -22 19 -22z m3496 -744 l7 -689 -347 -345 -347 -345 7 -523 7 -523 -67 -69
c-57 -60 -66 -73 -61 -95 4 -14 1 -42 -5 -62 -15 -44 -64 -70 -116 -60 -39 7
-84 56 -84 91 0 65 64 121 124 110 28 -5 37 0 84 47 l52 52 6 530 5 530 341
335 340 335 -2 390 c-1 378 16 1025 27 1055 16 41 23 -133 29 -764z m3670 727
c-10 -10 -19 5 -10 18 6 11 8 11 12 0 2 -7 1 -15 -2 -18z m-203 -130 c-7 -2
-21 -2 -30 0 -10 3 -4 5 12 5 17 0 24 -2 18 -5z m-4483 -58 c5 11 9 -92 9
-236 1 -141 4 -458 7 -705 l7 -449 -131 -129 -130 -128 0 -457 0 -456 -236
-230 -236 -230 0 -340 0 -340 -118 -118 -119 -119 5 -47 c4 -43 1 -52 -28 -84
-29 -34 -37 -37 -85 -37 -48 0 -56 3 -84 35 -74 85 -6 207 107 191 l45 -6 108
107 109 107 0 337 0 336 235 230 235 231 0 448 0 448 133 133 134 133 6 368
c4 202 8 525 9 717 1 193 3 332 6 310 3 -32 6 -36 12 -20z m4410 41 c0 -2 -8
-10 -17 -17 -16 -13 -17 -12 -4 4 13 16 21 21 21 13z m130 -11 c7 -9 8 -15 2
-15 -5 0 -12 7 -16 15 -3 8 -4 15 -2 15 2 0 9 -7 16 -15z m-4707 -92 c4 -54 7
-348 7 -653 l0 -554 -124 -126 -125 -125 6 -445 5 -445 -221 -220 -221 -219 0
-256 0 -256 -45 -44 c-42 -41 -45 -48 -40 -81 12 -73 -40 -139 -111 -139 -44
0 -92 37 -105 80 -15 49 -5 85 32 122 26 27 35 30 84 26 50 -3 56 -1 89 31
l36 35 0 251 0 251 219 217 219 217 3 450 4 450 128 127 127 127 0 450 c0 476
9 826 20 826 4 0 10 -44 13 -97z m4674 65 c13 -12 23 -32 23 -44 0 -23 -42
-64 -65 -64 -25 0 -65 41 -65 67 0 58 63 82 107 41z m-7215 -7 c65 -32 108
-101 108 -171 0 -80 -61 -164 -139 -191 -23 -8 -31 -18 -36 -47 -4 -20 -9
-455 -11 -967 l-5 -930 154 -150 155 -150 7 -400 7 -400 114 -115 114 -115 0
-400 0 -400 -175 -174 -175 -175 0 -382 c0 -307 -3 -384 -13 -393 -12 -9 -15
20 -21 167 -3 97 -11 195 -16 217 -5 22 -10 126 -10 231 l0 191 175 171 175
172 0 378 0 377 -115 115 -115 115 0 396 0 395 -150 149 -150 149 3 891 c1
489 -2 933 -6 985 l-9 96 -45 24 c-107 57 -137 203 -59 292 58 66 163 88 238
49z m2393 -671 l8 -515 -127 -124 -126 -125 0 -415 0 -415 -397 -391 -398
-392 -1 -48 c-1 -63 -34 -95 -99 -95 -36 0 -47 5 -69 31 -66 78 7 194 101 161
27 -9 41 3 421 377 l393 386 -1 406 0 407 124 122 124 122 5 561 c5 495 8 596
18 617 9 19 18 -228 24 -670z m4885 642 c0 -9 -4 -23 -8 -29 -5 -8 -8 1 -8 22
0 18 4 31 8 29 4 -3 8 -13 8 -22z m-203 -4 c-3 -8 -6 -5 -6 6 -1 11 2 17 5 13
3 -3 4 -12 1 -19z m71 -89 c10 0 12 -3 5 -5 -20 -8 -52 15 -69 49 -16 32 -16
32 16 -5 17 -21 39 -38 48 -39z m-5313 -981 l7 -903 -571 -564 -572 -564 1
-215 1 -215 40 -35 c44 -40 58 -86 39 -133 -19 -45 -56 -69 -105 -69 -112 0
-151 136 -59 206 l34 26 0 233 0 232 238 233 c130 129 386 381 568 560 l331
328 5 903 c5 836 10 1002 29 912 3 -18 10 -439 14 -935z m7505 947 c0 -8 -4
-15 -9 -15 -13 0 -22 16 -14 24 11 11 23 6 23 -9z m40 -35 c0 -5 -2 -10 -4
-10 -3 0 -8 5 -11 10 -3 6 -1 10 4 10 6 0 11 -4 11 -10z m-7962 -297 c8 -183
10 -444 6 -763 l-6 -485 -386 -386 -385 -387 11 -31 c15 -42 5 -85 -24 -115
-66 -65 -184 -17 -184 74 0 69 42 109 115 110 l50 0 377 378 376 377 5 735 c2
404 8 743 12 753 4 9 10 17 14 17 4 0 13 -125 19 -277z m8236 228 c-4 -3 -9 0
-11 7 -3 6 -9 10 -14 6 -11 -6 -12 9 -2 20 4 4 13 -1 20 -10 7 -10 10 -20 7
-23z m-14145 -416 c0 -211 -8 -297 -25 -260 -12 26 -12 494 0 520 17 37 25
-49 25 -260z m5284 -966 c63 -52 54 -142 -17 -176 -110 -52 -207 88 -118 168
16 15 34 28 40 30 16 6 21 140 22 614 0 294 4 445 10 435 8 -13 10 -12 11 5 1
11 6 -220 10 -514 l8 -534 34 -28z m-4273 457 c0 -445 -2 -523 -14 -523 -11 0
-16 23 -21 91 -9 123 -1 927 9 948 4 10 12 15 17 12 5 -3 9 -231 9 -528z
m1334 -176 c-1 -424 -10 -549 -30 -435 -11 63 -12 853 -1 880 l8 20 12 -20 c9
-15 12 -134 11 -445z m-1621 127 c26 -22 47 -48 47 -59 0 -11 13 -25 34 -34
36 -18 66 -68 66 -110 0 -36 -35 -81 -80 -104 -54 -27 -79 -25 -123 11 -35 29
-37 33 -37 91 0 56 2 63 35 94 19 18 35 38 35 43 0 6 -20 36 -45 67 -75 92
-41 92 68 1z m2736 -802 l1 -610 -100 -100 -100 -100 0 -287 0 -287 29 -16
c42 -21 61 -53 61 -103 0 -63 -40 -102 -105 -102 -57 0 -91 21 -106 67 -15 48
1 102 39 127 l29 19 5 301 4 301 101 98 100 98 7 641 c4 353 10 647 14 653 16
24 20 -124 21 -700z m-625 -587 l-137 -138 7 -282 c8 -363 11 -384 45 -394 14
-4 31 -8 36 -9 26 -3 85 -28 85 -36 0 -4 13 -15 30 -24 34 -17 97 -124 112
-188 7 -31 5 -59 -8 -112 -17 -71 -76 -175 -99 -175 -6 0 -26 -13 -44 -29 -70
-63 -268 -55 -338 13 -69 67 -78 70 -96 36 -7 -14 -29 -33 -50 -44 -122 -59
-220 101 -116 189 l32 26 8 707 c5 389 12 736 16 772 l6 65 7 -45 c6 -37 26
-1221 25 -1436 -1 -52 2 -62 20 -71 21 -9 22 -8 17 39 -5 54 12 125 42 179 26
45 110 119 136 119 35 0 68 22 74 49 4 14 9 172 13 351 l6 325 132 130 132
130 7 205 c3 113 7 282 7 375 1 103 5 154 9 130 l7 -40 4 45 c2 25 5 -128 6
-339 l3 -385 -136 -138z m-507 390 c-3 -7 -5 -2 -5 12 0 14 2 19 5 13 2 -7 2
-19 0 -25z m2141 -284 c62 -43 65 -122 7 -173 l-35 -30 0 -319 0 -318 -104
-102 -103 -102 -154 0 -154 -1 -47 -44 -48 -43 0 -281 0 -281 70 -66 70 -67 0
-114 c0 -102 2 -118 21 -141 20 -26 21 -35 18 -257 l-4 -230 55 -3 55 -3 -3
427 -2 427 132 134 c130 131 132 134 130 175 -2 45 7 63 48 91 39 27 77 22
116 -17 40 -40 44 -75 14 -123 -21 -36 -54 -48 -104 -40 -31 5 -40 -1 -155
-117 l-123 -123 4 -416 3 -417 152 0 152 0 20 -26 c19 -24 21 -40 21 -180 l0
-154 -24 0 c-23 0 -23 -3 -28 -109 -3 -60 -9 -114 -12 -120 -5 -8 -86 -11
-261 -11 l-255 0 -2 -252 -3 -253 -772 -3 -773 -2 -2 -508 -3 -507 -256 -3
-256 -2 -6 232 c-4 128 -7 492 -7 809 0 647 -3 729 -31 729 -25 0 -27 28 -34
447 -7 375 -5 390 34 420 11 9 68 12 183 13 l168 0 -116 113 -116 112 -58 0
c-48 0 -63 4 -84 24 -50 47 -42 137 15 166 84 44 171 -17 156 -109 -5 -33 0
-40 106 -148 62 -62 120 -123 129 -135 l18 -23 430 0 c236 0 430 2 430 4 0 13
-185 181 -198 179 -10 -1 -31 -5 -48 -9 -62 -12 -124 45 -124 116 0 21 11 42
34 67 28 31 41 38 73 38 22 0 52 -9 67 -19 37 -24 60 -80 48 -115 -9 -26 -3
-34 106 -144 l115 -117 204 0 203 0 0 28 c0 22 -32 60 -172 199 l-173 173 -37
-12 c-31 -9 -42 -8 -75 9 -49 25 -65 56 -59 113 9 94 109 130 183 66 24 -21
28 -32 29 -83 l1 -59 177 -174 c174 -172 176 -175 176 -217 l0 -43 150 0 150
0 0 98 0 98 -75 74 -75 74 0 294 0 294 63 64 62 63 157 3 158 3 87 88 88 87 3
304 3 304 -34 21 c-66 41 -76 114 -23 167 27 27 42 34 73 34 21 0 49 -7 61
-16z m-2774 -120 c5 -14 4 -15 -9 -4 -17 14 -19 20 -6 20 5 0 12 -7 15 -16z
m93 -78 l53 -50 0 -313 0 -313 24 -11 c53 -25 62 -104 15 -143 -63 -53 -148
-17 -149 63 0 27 8 42 40 71 l40 37 0 301 0 302 -30 27 c-17 14 -28 29 -25 31
3 3 -5 10 -17 16 -13 6 -24 20 -26 30 -5 24 8 16 75 -48z m-238 -728 c1 -345
2 -357 21 -363 10 -3 31 -20 45 -36 69 -83 -17 -198 -118 -156 -43 19 -73 71
-63 111 7 27 47 76 63 76 6 0 13 170 17 466 4 257 11 474 14 483 11 26 19
-202 21 -581z m-945 540 c3 -18 7 -89 10 -158 2 -69 7 -132 10 -141 4 -8 23
-21 42 -28 87 -32 142 -120 131 -214 -7 -56 -48 -126 -78 -134 -10 -3 -19 -9
-19 -13 0 -29 -140 -41 -178 -14 -12 8 -25 13 -30 10 -4 -2 -24 18 -44 45 -49
67 -60 142 -30 205 27 54 61 94 81 94 9 0 25 7 35 15 20 15 19 13 45 358 1 4
5 7 11 7 5 0 11 -15 14 -32z m-313 -147 c-14 -20 -31 -31 -46 -31 -22 0 -21 2
14 38 42 43 64 38 32 -7z m46 12 c-3 -10 -5 -4 -5 12 0 17 2 24 5 18 2 -7 2
-21 0 -30z m853 -28 c12 32 22 -475 16 -748 l-6 -249 30 -28 c56 -52 61 -112
13 -150 -50 -39 -115 -22 -140 37 -18 45 -4 87 38 109 l29 15 1 527 c1 290 4
514 7 497 4 -26 5 -27 12 -10z m-876 -26 c-11 -11 -38 -22 -60 -24 l-39 -5 37
11 c20 6 44 19 54 30 9 10 20 17 23 14 2 -3 -4 -15 -15 -26z m-69 -401 c82
-79 251 -251 377 -383 l228 -240 0 -116 0 -115 158 -155 157 -154 210 3 210 3
73 -74 c68 -71 88 -107 59 -107 -7 0 -44 32 -82 70 l-69 70 -211 0 -211 0
-162 163 -162 163 0 116 0 116 -292 291 c-382 381 -481 491 -440 491 5 0 76
-64 157 -142z m3876 -224 c11 -10 24 -34 30 -54 14 -45 -7 -99 -46 -120 l-25
-13 -1 -381 c-1 -210 -5 -466 -8 -571 l-7 -190 -2 156 c-2 118 -7 173 -22 230
-18 67 -20 108 -20 414 l0 340 -22 10 c-12 6 -33 26 -46 45 -69 102 77 217
169 134z m1579 -56 c19 -8 56 -35 81 -59 63 -60 95 -139 92 -232 -1 -38 -6
-74 -11 -80 -5 -7 -17 -33 -27 -59 -10 -27 -23 -48 -29 -48 -6 0 -17 -9 -23
-19 -7 -11 -29 -25 -50 -31 -21 -7 -44 -19 -50 -28 -7 -9 -13 -12 -13 -8 0 5
-6 3 -14 -3 -8 -6 -20 -10 -27 -9 -22 5 -30 -125 -23 -402 3 -157 2 -265 -4
-280 -6 -14 -23 -32 -38 -42 l-29 -16 3 363 c4 400 2 411 -49 400 -23 -5 -36
-1 -60 19 -17 14 -35 26 -40 26 -17 0 -63 61 -86 114 -42 96 -25 230 39 310
80 100 233 136 358 84z m-5405 -258 c3 -6 -1 -7 -9 -4 -18 7 -21 14 -7 14 6 0
13 -4 16 -10z m7235 -30 c0 -39 -1 -40 -35 -40 -24 0 -35 -5 -35 -15 0 -8 -6
-15 -12 -15 -7 0 -23 -3 -35 -6 -18 -5 -21 -3 -16 15 3 12 9 21 14 21 5 0 9 9
9 20 0 23 29 27 48 8 8 -8 12 -8 12 -1 0 6 9 13 20 16 11 3 20 12 20 21 0 9 2
16 5 16 3 0 5 -18 5 -40z m-7125 -80 c3 -5 2 -10 -4 -10 -5 0 -13 5 -16 10 -3
6 -2 10 4 10 5 0 13 -4 16 -10z m45 -58 c0 -15 -2 -15 -10 -2 -13 20 -13 33 0
25 6 -3 10 -14 10 -23z m30 -18 c0 -8 -5 -12 -10 -9 -6 4 -8 11 -5 16 9 14 15
11 15 -7z m40 -29 c11 -13 11 -18 0 -28 -10 -10 -12 -8 -7 6 4 11 3 16 -3 12
-13 -8 -32 4 -25 16 9 13 21 11 35 -6z m215 -207 c230 -222 634 -617 843 -825
155 -153 181 -189 147 -200 -16 -5 -1198 1183 -1190 1196 3 6 10 9 14 7 4 -3
88 -83 186 -178z m-395 -60 c0 -5 -9 -3 -20 4 -11 7 -20 16 -20 20 0 5 9 3 20
-4 11 -7 20 -16 20 -20z m254 -228 c264 -256 556 -542 844 -825 158 -156 241
-231 258 -233 51 -7 39 -51 -13 -52 -32 0 -1294 1255 -1286 1278 4 10 2 13 -5
8 -10 -6 -42 29 -42 48 0 13 16 -2 244 -224z m-358 45 c11 -11 58 -56 105 -99
46 -44 355 -349 686 -679 l603 -599 0 -56 c0 -50 3 -58 32 -82 27 -23 33 -34
33 -70 0 -35 -6 -47 -33 -71 -36 -33 -60 -36 -102 -14 -35 18 -50 43 -50 85 0
42 15 67 50 85 27 14 30 20 30 63 l0 47 -333 330 c-182 182 -397 390 -477 462
-157 142 -253 239 -400 403 -51 58 -99 110 -104 115 -6 6 -30 31 -53 57 -65
71 -55 89 13 23z m-51 -144 c3 -5 1 -12 -5 -16 -5 -3 -10 1 -10 9 0 18 6 21
15 7z m36 -45 c5 3 9 -2 9 -12 0 -13 -3 -14 -15 -4 -8 7 -15 18 -14 24 0 7 2
6 6 -2 2 -6 9 -10 14 -6z m39 -30 c0 -3 -4 -8 -10 -11 -5 -3 -10 -1 -10 4 0 6
5 11 10 11 6 0 10 -2 10 -4z m245 -244 l225 -223 0 -177 0 -177 207 -201 c207
-201 208 -201 246 -196 45 6 80 -11 96 -45 18 -39 13 -78 -14 -107 -35 -38
-105 -37 -134 1 -28 35 -35 66 -22 92 10 19 -9 40 -199 227 l-210 207 0 181
-1 181 -219 224 c-199 203 -240 249 -210 239 5 -1 111 -103 235 -226z m-405
202 c0 -8 -5 -12 -10 -9 -6 4 -8 11 -5 16 9 14 15 11 15 -7z m69 -71 c6 -10
11 -15 11 -10 0 4 56 -49 125 -117 l125 -124 2 -336 3 -335 35 -36 c19 -21 94
-88 167 -151 73 -63 198 -186 278 -274 l146 -160 181 0 180 0 104 -95 c65 -59
109 -93 118 -89 8 3 22 21 30 39 22 45 41 36 56 -25 12 -49 7 -118 -12 -153
-12 -24 -46 -5 -60 34 -6 17 -19 31 -32 35 -12 3 -66 52 -120 110 l-98 104
-178 0 -179 0 -327 325 -327 326 7 330 6 331 -77 81 c-93 97 -106 111 -158
165 -21 23 -34 42 -28 42 7 0 17 -8 22 -17z m5825 -88 c-4 -8 -12 -15 -20 -15
-17 0 -18 17 -1 23 22 9 27 7 21 -8z m-5768 -223 c12 -11 14 -84 14 -436 l0
-422 118 -113 c64 -63 207 -203 318 -312 l201 -199 224 0 224 -1 193 -188
c106 -104 200 -192 208 -195 23 -9 11 -31 -17 -34 -19 -2 -60 33 -214 188
l-190 190 -220 0 -220 0 -328 328 -327 328 0 374 c0 206 0 398 0 426 0 50 -2
53 -65 115 -36 34 -65 70 -65 78 0 8 29 -14 66 -50 36 -35 72 -70 80 -77z
m-196 -84 c1 -7 15 -22 33 -33 l32 -20 5 -420 5 -420 105 -100 c58 -55 213
-206 345 -336 132 -130 274 -269 315 -308 l75 -71 96 0 c93 0 96 1 109 26 37
69 144 71 183 4 44 -73 -4 -160 -88 -160 -48 0 -78 18 -95 60 l-12 30 -107 0
-106 0 -428 428 -427 427 0 415 c1 382 -1 416 -17 427 -9 7 -13 13 -8 13 5 0
-1 7 -13 16 -23 16 -29 34 -12 34 6 0 10 -6 10 -12z m4636 -425 c14 -9 30 -27
34 -39 5 -12 19 -24 32 -26 34 -5 37 -45 5 -57 -14 -6 -28 -19 -32 -30 -10
-33 -58 -61 -105 -61 -34 0 -48 6 -76 34 -54 54 -45 134 18 174 40 26 90 28
124 5z m-395 -31 c-5 -9 -53 -60 -108 -112 l-98 -95 -3 32 c-2 25 5 43 30 74
50 63 126 119 160 119 24 0 27 -3 19 -18z m484 -392 l0 -25 -272 -5 -273 -5
-150 -144 -150 -145 0 -727 c0 -462 -4 -737 -10 -754 -15 -40 -43 -29 -51 20
-4 22 -7 364 -6 760 l2 720 170 167 170 168 285 -3 285 -2 0 -25z m-26 -56
c24 -5 31 -12 31 -29 0 -32 -25 -35 -294 -35 l-231 0 -87 -87 -88 -88 0 -511
0 -511 95 -97 c84 -85 95 -101 95 -132 0 -30 -2 -33 -17 -25 -10 5 -67 59
-127 120 l-109 110 2 538 1 538 109 108 108 107 240 0 c132 0 255 -3 272 -6z
m-1778 -72 c-13 -25 -418 -422 -431 -422 -5 0 -10 12 -10 27 0 23 36 63 194
220 169 167 199 193 226 193 26 0 29 -3 21 -18z m199 10 c0 -4 -117 -124 -260
-267 l-259 -259 -3 -333 c-3 -360 -6 -343 52 -343 58 0 55 -16 52 323 l-3 313
290 287 c253 251 293 287 320 287 17 0 31 -4 31 -8 0 -5 -133 -140 -295 -301
l-295 -293 0 -294 c0 -162 -1 -297 -2 -301 -2 -5 25 -10 59 -13 34 -3 68 -11
75 -18 10 -10 12 -43 10 -123 l-3 -109 104 0 c156 0 170 -16 151 -177 -6 -43
-10 -53 -25 -53 -16 0 -19 -8 -19 -50 l0 -51 -137 3 -138 3 -3 48 c-3 39 -6
47 -23 47 -16 0 -19 7 -19 43 0 24 -5 48 -12 55 -9 9 -95 12 -324 12 l-313 0
-3 -52 c-3 -45 -6 -53 -24 -56 -18 -3 -22 -12 -28 -70 -3 -37 -6 -172 -6 -299
l0 -233 380 0 380 0 0 125 0 125 136 0 137 0 -7 -92 c-3 -50 -6 -108 -6 -130
l0 -38 -125 0 -124 0 -3 -122 -3 -123 -385 0 -385 0 -3 122 -3 122 -127 3
-127 3 -3 303 c-2 288 -3 302 -21 302 -10 0 -22 7 -25 16 -9 22 -7 167 2 181
14 22 63 33 153 33 l89 0 0 103 c0 154 -11 147 221 147 l189 0 0 108 c0 94 3
111 19 126 18 16 19 16 26 -11 3 -15 5 -70 4 -123 l-3 -95 47 0 48 0 -1 351 0
351 255 251 c219 217 259 252 285 252 16 0 30 -3 30 -8z m599 -452 c1 -253 -1
-637 -5 -852 -6 -332 -9 -388 -21 -373 -9 14 -13 57 -13 158 0 76 -7 192 -15
257 -13 98 -15 219 -13 682 2 310 7 569 11 576 5 6 18 12 31 12 l23 0 2 -460z
m980 354 c27 -6 32 -11 29 -33 l-3 -26 -176 -3 -176 -2 -85 -88 -85 -87 1
-351 1 -352 74 -78 75 -79 134 -1 c106 -1 137 -5 149 -17 13 -13 16 -47 14
-219 -2 -227 -5 -248 -32 -248 -18 0 -19 -11 -19 -248 0 -137 -3 -331 -7 -431
l-6 -182 -126 3 -126 3 -3 253 -2 252 -380 0 -380 0 0 -255 0 -255 -128 0
-129 0 -6 302 c-4 166 -7 359 -7 430 0 118 -1 128 -19 128 -27 0 -31 34 -31
253 0 163 2 193 17 209 14 16 34 18 174 18 152 0 158 -1 173 -22 13 -19 16
-59 16 -240 l0 -218 -25 0 c-22 0 -25 -4 -25 -40 l0 -40 375 0 376 0 -7 38
c-7 42 -11 47 -27 47 -23 0 -38 407 -17 445 9 17 0 30 -65 91 l-75 72 0 381 0
382 109 107 108 107 155 0 c86 0 170 -3 187 -6z m-4255 -514 c15 -15 21 -33
21 -66 0 -39 -5 -49 -33 -72 l-32 -27 0 -226 c0 -124 -3 -484 -7 -799 l-6
-573 -63 -61 c-84 -80 -94 -89 -101 -82 -3 3 27 40 67 83 l72 78 -5 789 -5
789 -31 27 c-37 34 -47 71 -31 111 25 59 109 75 154 29z m251 -162 c44 -38 35
-117 -16 -143 l-29 -16 -1 -707 c0 -389 -4 -741 -7 -783 l-7 -77 -129 -123
c-71 -68 -135 -123 -143 -121 -8 2 -12 -1 -9 -6 3 -5 -3 -17 -13 -26 -14 -13
-21 -14 -27 -5 -4 8 -3 10 4 5 7 -4 16 2 21 16 5 13 68 81 140 153 l131 130 0
768 0 768 -35 35 c-45 45 -47 84 -6 125 37 37 88 39 126 7z m-644 -32 c58 -25
118 -120 118 -186 0 -65 -62 -164 -108 -173 -57 -12 -68 -35 -75 -164 -4 -65
-8 -211 -9 -325 -1 -115 -5 -208 -8 -208 -11 0 -19 59 -19 134 0 39 -5 175
-12 302 l-12 232 -46 23 c-66 33 -103 88 -108 161 -7 94 35 169 113 204 40 18
124 17 166 0z m1002 -176 c20 -23 27 -41 27 -72 0 -35 -6 -46 -40 -78 l-40
-37 6 -199 c3 -109 2 -446 -3 -748 l-8 -548 -233 -227 c-128 -124 -234 -222
-235 -216 -5 15 15 37 231 256 l203 206 -6 744 -6 744 -24 15 c-27 16 -55 66
-55 98 0 29 42 85 70 93 41 13 83 1 113 -31z m446 -84 c55 -29 68 -114 25
-165 -14 -17 -32 -31 -41 -31 -12 0 -14 -31 -12 -222 2 -123 -1 -499 -6 -835
l-8 -613 -86 -82 c-47 -45 -170 -164 -273 -264 l-188 -182 0 -163 c0 -210 -17
-201 -26 15 l-7 158 273 273 273 273 -5 567 c-4 311 -9 569 -12 572 -3 3 -17
-4 -32 -16 -15 -11 -43 -25 -64 -31 l-37 -10 -6 -287 c-4 -157 -7 -373 -7
-479 l0 -192 -260 -253 -260 -253 -1 -50 -1 -51 -8 55 c-5 30 -5 61 0 70 5 8
117 123 249 255 l241 240 -1 395 c-1 217 -4 429 -8 470 l-6 75 -47 22 c-27 13
-48 27 -48 31 0 5 -11 14 -25 20 -58 27 -87 188 -49 268 51 108 220 160 319
99 22 -13 43 -25 48 -25 4 0 7 33 7 73 0 68 -2 75 -23 84 -33 15 -59 73 -51
113 4 17 20 44 36 61 33 33 80 39 127 15z m-684 -70 c36 -15 65 -59 65 -98 0
-32 -34 -85 -59 -93 -21 -6 -21 -8 -21 -608 l0 -602 -174 -172 c-96 -95 -177
-173 -179 -173 -2 0 -4 8 -4 18 0 9 68 86 151 170 83 84 152 155 154 156 1 2
2 273 2 602 0 464 -3 600 -13 603 -6 2 -24 17 -39 32 -51 50 -32 135 36 165
39 17 40 17 81 0z m9879 -542 c3 -9 6 -136 6 -283 0 -291 -3 -306 -49 -270
-15 12 -38 19 -56 18 -49 -3 -144 12 -155 26 -7 9 -5 24 7 51 26 63 29 241 5
334 -11 41 -17 78 -14 82 13 13 97 30 156 32 37 1 61 6 64 14 5 17 29 15 36
-4z m-9010 -21 c-4 -16 -9 -319 -11 -674 l-3 -645 -123 -119 c-67 -66 -184
-180 -259 -254 l-138 -134 0 -246 c0 -154 -4 -241 -10 -231 -6 10 -10 0 -13
-35 -2 -28 -4 81 -5 240 l-2 290 255 255 255 255 0 639 0 640 22 23 c29 31 42
29 32 -4z m700 -59 c8 -78 8 -339 -1 -406 -4 -38 -10 -48 -24 -48 -13 0 -20
10 -24 33 -9 46 -2 459 8 475 20 30 34 11 41 -54z m96 47 c6 -12 10 -99 10
-213 l0 -194 31 -30 c17 -16 35 -37 40 -46 18 -34 -42 -22 -83 17 l-38 34 0
219 c0 120 3 222 7 225 11 12 22 8 33 -12z m235 -138 c-16 -41 -16 -88 0 -108
16 -20 16 -20 6 2 -15 29 -14 68 2 81 9 8 21 1 45 -28 41 -49 42 -70 2 -70
-30 0 -41 -14 -17 -23 6 -2 9 -7 6 -11 -13 -14 -59 14 -75 45 -17 34 -14 90 7
115 16 20 33 17 24 -3z m-2745 -243 c0 -5 -4 -10 -10 -10 -5 0 -10 5 -10 10 0
6 5 10 10 10 6 0 10 -4 10 -10z m87 -132 c-2 -13 -4 -5 -4 17 -1 22 1 32 4 23
2 -10 2 -28 0 -40z m3808 13 c3 -5 6 -46 7 -91 l2 -82 -89 -84 c-49 -46 -93
-84 -97 -84 -4 0 -8 11 -8 25 0 16 24 51 70 104 l70 79 0 64 c0 36 3 68 7 71
9 10 31 9 38 -2z m1435 1 c0 -5 -16 -27 -35 -49 l-35 -41 0 -1018 0 -1017 -57
-56 c-32 -30 -178 -173 -325 -318 l-268 -264 0 -443 c0 -489 -12 -1155 -19
-1116 -4 16 -8 4 -12 -35 -3 -33 -6 319 -7 781 l-2 842 315 313 315 313 0 751
c0 414 3 875 7 1025 l6 273 30 34 c20 23 38 33 58 33 16 0 29 -4 29 -8z m331
-10 c-6 -11 -69 -77 -141 -148 l-130 -128 0 -1007 0 -1006 -289 -282 -290
-282 0 -292 c0 -506 -14 -1307 -22 -1307 -16 0 -18 98 -24 850 l-6 765 285
285 286 285 0 1010 0 1010 118 116 c133 132 155 149 195 149 24 0 26 -3 18
-18z m72 -310 c-16 -24 -17 -49 -15 -242 l3 -215 169 -170 170 -170 0 -474 0
-473 -186 -182 -186 -182 -4 -1034 c-5 -1066 -10 -1354 -26 -1290 -9 39 -27
1283 -28 1930 l0 415 185 185 185 185 0 445 0 445 -175 175 -175 175 0 241 0
241 48 44 47 44 3 -33 c2 -20 -4 -44 -15 -60z m-2613 -317 l0 -370 -125 -119
-125 -118 0 -367 0 -366 -247 -241 -248 -242 4 -428 3 -429 -88 -78 c-112 -97
-111 -97 -117 -91 -3 3 4 17 16 32 28 33 117 133 134 150 10 11 13 103 13 437
l0 423 240 239 240 238 0 370 0 370 125 122 125 122 0 355 c0 316 2 356 16
371 14 13 19 14 25 3 5 -7 9 -180 9 -383z m-1200 349 c6 -14 10 -137 10 -274
l0 -248 -274 -269 -274 -268 -6 -245 c-3 -135 -6 -297 -7 -360 -3 -214 -17
-28 -24 305 l-6 310 270 270 271 270 0 252 c0 138 3 258 6 267 9 24 23 19 34
-10z m2338 -91 c2 -9 -8 -13 -31 -13 -27 0 -41 -7 -61 -31 -31 -37 -33 -58 -6
-92 38 -49 106 -42 138 13 18 32 32 39 32 15 0 -28 -24 -67 -52 -81 -28 -14
-28 -16 -28 -108 l0 -94 -165 -159 -165 -158 0 -131 0 -130 90 -88 90 -89 0
-217 0 -217 -147 -143 c-82 -79 -319 -311 -529 -517 l-381 -373 -5 -392 c-6
-392 -6 -393 16 -411 l21 -18 -24 11 c-47 24 -129 -16 -132 -64 -1 -18 -2 -18
-6 -3 -6 23 22 66 50 76 l22 8 0 398 0 397 533 527 532 526 0 194 0 194 -95
96 -95 97 0 141 0 141 165 163 165 163 0 88 c0 70 -3 88 -14 88 -26 0 -66 64
-66 104 0 30 7 45 35 73 29 29 40 34 71 31 21 -2 39 -9 42 -15z m932 -898 l0
-809 -217 -217 c-120 -118 -406 -399 -635 -623 l-418 -408 -1 -297 c-1 -247
-10 -446 -18 -406 -6 27 -9 116 -16 405 l-7 315 627 623 627 624 -3 788 -4
788 24 26 c18 20 27 23 33 14 4 -7 8 -377 8 -823z m-349 785 c18 -10 19 -29
19 -704 l0 -693 -232 -229 c-228 -225 -504 -495 -883 -864 -104 -102 -193
-189 -197 -195 -4 -5 -8 -144 -8 -307 0 -176 -4 -298 -9 -298 -5 0 -11 -8 -13
-18 -2 -9 -7 127 -10 303 -6 258 -4 324 7 341 7 11 299 303 649 649 l636 629
0 682 c0 375 3 689 6 698 7 19 9 19 35 6z m1515 0 c23 0 4 -26 -85 -118 l-81
-84 0 -752 0 -752 -165 -162 -165 -163 0 -178 0 -178 74 -71 74 -72 154 0 153
0 84 -84 83 -84 -7 -886 c-4 -487 -11 -884 -15 -881 -4 2 -8 -19 -9 -47 -1
-29 -3 -53 -5 -55 -4 -4 -16 1102 -16 1511 l0 340 -69 68 -70 68 -153 0 -153
0 -87 87 -88 88 0 200 0 200 161 160 161 160 -4 758 -5 757 48 50 c78 82 140
132 156 126 8 -3 21 -6 29 -6z m-1706 -643 l0 -643 -197 -194 c-109 -107 -299
-294 -423 -415 -124 -121 -323 -316 -442 -434 l-218 -214 -1 -356 c-1 -196 -4
-347 -6 -337 -4 15 -7 16 -14 5 -9 -14 -15 274 -13 570 l1 144 627 625 626
624 0 615 c0 404 4 621 10 634 6 10 20 19 30 19 20 0 20 -11 20 -643z m-1812
398 l2 -229 -116 -117 -116 -116 -4 -404 -5 -404 -213 -210 -213 -210 -6 -243
c-3 -133 -3 -316 0 -405 5 -142 -1 -266 -12 -255 -2 2 -6 209 -10 461 l-5 458
210 212 210 212 0 405 0 405 115 115 115 115 0 203 c0 200 7 248 33 239 9 -3
13 -67 15 -232z m590 209 c11 26 15 27 75 24 l62 -3 -1 -39 c-1 -24 2 -33 7
-25 5 8 9 26 9 42 0 33 17 36 26 3 7 -29 -17 -79 -48 -100 -30 -21 -98 -20
-124 2 -27 22 -44 54 -44 85 0 35 14 43 20 11 l5 -28 13 28z m1556 -25 c4 -29
4 -357 0 -730 l-7 -678 -81 -78 c-45 -43 -272 -264 -506 -493 -234 -229 -485
-474 -557 -545 l-133 -128 0 -152 c0 -241 -13 -526 -21 -485 -5 19 -11 175
-15 345 l-6 310 637 629 637 630 -2 665 c-2 850 -5 761 24 761 21 0 24 -6 30
-51z m1449 44 c-7 -2 -21 -2 -30 0 -10 3 -4 5 12 5 17 0 24 -2 18 -5z m-4279
-19 c3 -9 6 -64 6 -123 l0 -108 -322 -314 c-176 -173 -338 -329 -360 -348
l-38 -33 0 -252 c0 -275 -8 -446 -22 -446 -4 0 -8 161 -8 358 l0 357 352 350
c195 194 353 359 354 370 1 11 3 62 3 113 1 71 4 92 15 92 8 0 17 -7 20 -16z
m256 -112 l0 -129 -152 -148 c-84 -82 -252 -246 -373 -365 l-220 -215 -3 -415
c-2 -228 -6 -417 -8 -419 -15 -16 -19 57 -22 431 l-4 421 367 367 367 367 2
104 c2 108 7 129 32 129 11 0 14 -23 14 -128z m224 112 c3 -9 6 -69 6 -134 l0
-117 -406 -399 c-224 -220 -414 -404 -424 -411 -16 -11 -18 -46 -24 -395 -4
-211 -10 -419 -14 -463 l-7 -80 -6 125 c-4 69 -7 278 -8 465 l-2 339 420 420
421 421 0 106 c0 114 4 139 25 139 7 0 16 -7 19 -16z m-2327 -89 c0 -8 -4 -15
-9 -15 -10 0 -11 14 -1 23 9 10 10 9 10 -8z m133 -79 c0 -16 -18 -31 -27 -22
-8 8 5 36 17 36 5 0 10 -6 10 -14z m6569 -272 c18 -9 40 -33 52 -56 18 -36 19
-43 6 -81 -8 -26 -25 -50 -44 -62 l-30 -20 -6 -635 c-9 -807 -9 -2148 -1
-2228 7 -66 20 -72 57 -26 9 13 42 35 73 50 48 23 63 26 122 22 97 -8 164 -47
220 -128 24 -35 41 -69 38 -76 -3 -8 0 -27 5 -43 14 -39 -5 -135 -32 -162 -32
-32 -33 -62 -4 -98 27 -31 27 -34 26 -164 l-2 -132 -142 -136 c-92 -89 -145
-133 -150 -125 -4 6 -5 -1 -1 -17 4 -17 2 -27 -5 -27 -6 0 -11 10 -11 23 1 15
46 69 136 162 l135 140 -5 65 c-3 36 -6 84 -6 106 0 31 -6 48 -26 67 -27 27
-33 27 -94 -1 -48 -22 -155 -21 -202 2 -20 10 -55 35 -79 57 -23 21 -44 37
-47 34 -4 -3 -22 -378 -32 -675 -2 -33 -2 -33 -9 -9 -17 53 -22 549 -26 2224
-3 1424 -6 1730 -17 1734 -23 8 -67 58 -74 85 -9 38 21 101 60 125 39 24 74
26 115 5z m419 -353 c42 -21 62 -55 62 -103 0 -23 -10 -41 -40 -69 l-40 -38 0
-1199 0 -1199 43 -39 c23 -22 131 -131 240 -242 l197 -202 0 -123 c0 -68 -3
-193 -6 -278 l-7 -154 -130 -132 c-72 -73 -133 -130 -136 -127 -3 3 -1 8 4 12
6 4 11 13 13 21 3 13 22 35 150 171 l61 65 1 266 0 266 -97 93 c-54 51 -165
158 -246 238 l-148 147 3 210 c2 115 2 660 0 1209 l-3 1000 -35 38 c-54 60
-43 132 27 169 43 23 42 23 87 0z m-6644 -501 c0 -267 -3 -381 -11 -395 -11
-19 -12 -19 -23 10 -14 36 -10 759 4 789 22 47 29 -43 30 -404z m4441 -1134
c39 -17 71 -46 105 -94 34 -51 32 -142 -6 -213 -25 -46 -38 -58 -90 -84 l-62
-30 -6 -65 c-3 -36 -9 -308 -13 -605 -4 -329 -10 -524 -15 -500 -14 65 -17
164 -22 651 -3 253 -9 475 -12 493 -5 25 -16 37 -53 56 -77 39 -121 109 -121
191 0 78 48 156 119 194 44 23 128 26 176 6z m-2405 -179 c56 -20 79 -39 112
-90 28 -44 30 -52 26 -121 -3 -71 -5 -75 -47 -122 -46 -50 -105 -82 -153 -83
-15 -1 -48 6 -73 15 -56 18 -56 18 -166 -82 -62 -57 -75 -75 -83 -111 -10 -55
-22 -55 -29 0 -7 48 -1 60 71 138 27 30 61 68 76 86 l27 32 -21 40 c-24 48
-27 136 -6 184 46 101 163 151 266 114z m3289 -41 c67 -35 69 -149 2 -189
l-28 -16 -6 -452 c-4 -249 -8 -585 -9 -748 -1 -163 -4 -278 -7 -256 l-5 40 -6
-50 c-3 -27 -9 289 -13 704 l-8 753 -40 38 c-33 32 -39 43 -39 79 0 36 6 49
34 77 38 38 77 44 125 20z m-1803 -244 c47 -38 57 -96 24 -142 -11 -16 -29
-32 -40 -35 -20 -6 -20 -17 -20 -468 0 -254 -3 -479 -6 -500 -6 -35 -28 -52
-33 -24 -1 6 -4 231 -8 499 -5 473 -6 488 -25 494 -26 8 -58 62 -58 98 0 44
58 96 107 96 21 0 48 -8 59 -18z m-3172 -288 c8 -22 6 -873 -3 -904 -16 -58
-24 15 -29 264 -5 280 5 656 18 656 4 0 11 -7 14 -16z m1304 -759 c-2 -189 -6
-347 -10 -351 -5 -4 -11 -4 -15 0 -11 11 -10 717 1 741 20 46 27 -59 24 -390z
m-2413 80 c9 -112 3 -481 -8 -491 -16 -16 -20 14 -25 188 -5 192 4 398 18 398
4 0 11 -43 15 -95z m7569 -859 c-6 -17 -34 -30 -34 -16 0 5 8 14 18 19 22 13
22 13 16 -3z"/>
<path d="M9590 11003 c-53 -19 -68 -86 -28 -123 33 -31 70 -30 106 3 32 30 29
70 -9 101 -31 26 -41 29 -69 19z"/>
<path d="M4996 11709 c-55 -43 -16 -151 54 -148 l25 2 -25 4 c-65 12 -93 88
-47 131 30 28 64 28 95 0 24 -22 24 -23 14 -2 -21 40 -74 46 -116 13z"/>
<path d="M5094 11588 l-19 -23 23 19 c21 18 27 26 19 26 -2 0 -12 -10 -23 -22z"/>
<path d="M6333 10140 c-31 -13 -46 -46 -38 -87 12 -66 109 -76 135 -14 12 30
5 74 -13 89 -20 15 -61 21 -84 12z"/>
<path d="M6355 10628 c-31 -17 -45 -39 -45 -74 0 -37 38 -74 75 -74 12 0 34 9
49 21 20 16 26 29 26 60 0 34 -5 42 -32 59 -38 23 -45 24 -73 8z"/>
<path d="M5345 10438 c-29 -16 -35 -28 -35 -70 0 -41 35 -78 75 -78 12 0 34 9
49 21 20 16 26 29 26 59 0 65 -59 100 -115 68z"/>
<path d="M5240 11563 c-35 -13 -50 -37 -50 -78 0 -83 96 -113 147 -46 45 58
-27 150 -97 124z"/>
<path d="M5382 12397 c-28 -29 -30 -97 -4 -120 46 -41 114 -28 137 27 16 39
12 60 -18 94 -28 31 -86 30 -115 -1z m114 -22 c11 -16 14 -34 9 -55 -17 -76
-135 -64 -135 13 0 43 25 67 71 67 30 0 42 -6 55 -25z"/>
<path d="M3408 10580 c-25 -26 -29 -36 -24 -63 8 -41 39 -67 82 -67 47 0 74
29 74 79 0 31 -6 44 -26 60 -37 29 -70 26 -106 -9z"/>
<path d="M2490 10212 c-29 -24 -30 -86 -2 -115 28 -28 76 -26 107 3 70 66 -30
173 -105 112z"/>
<path d="M4565 11504 c-14 -15 -25 -36 -25 -48 0 -31 41 -74 75 -81 l30 -5
-32 12 c-35 14 -62 44 -63 69 0 9 9 28 21 43 25 32 86 37 112 8 26 -29 22 -77
-9 -101 -15 -12 -22 -21 -17 -21 21 0 53 47 53 78 0 71 -95 100 -145 46z"/>
<path d="M3368 9903 c6 -2 18 -2 25 0 6 3 1 5 -13 5 -14 0 -19 -2 -12 -5z"/>
<path d="M2031 9874 c-31 -40 -28 -87 10 -118 17 -14 41 -26 54 -26 13 0 37
12 54 26 38 31 41 78 10 118 -16 21 -29 26 -64 26 -35 0 -48 -5 -64 -26z"/>
<path d="M2677 8823 c-4 -3 -7 -53 -7 -110 l0 -103 -25 0 -25 0 0 -105 0 -105
760 0 760 0 0 105 c0 97 -1 105 -19 105 -21 0 -28 36 -34 160 l-2 55 -701 3
c-385 1 -704 -1 -707 -5z m701 -144 c-13 -17 -27 -37 -32 -44 -6 -8 -5 -18 2
-26 72 -86 73 -95 26 -126 -34 -22 -198 -31 -262 -14 -58 16 -78 54 -43 82 23
19 22 19 -120 19 -186 0 -219 6 -219 35 l0 22 259 6 260 5 47 36 c29 22 58 36
76 36 l29 0 -23 -31z m572 22 c0 -12 -202 -211 -231 -227 -31 -17 -59 -18 -59
-1 0 6 52 63 115 125 95 92 120 112 145 112 17 0 30 -4 30 -9z m80 -104 c0
-28 -61 -102 -101 -122 -35 -19 -59 -19 -59 -2 0 16 133 147 149 147 6 0 11
-10 11 -23z"/>
<path d="M1692 10217 c-33 -35 -30 -99 4 -126 50 -39 116 -23 140 34 15 38 11
59 -19 93 -29 31 -95 31 -125 -1z m117 -24 c51 -63 -41 -141 -99 -83 -41 41
-10 110 49 110 20 0 36 -9 50 -27z"/>
<path d="M4290 10336 c0 -2 7 -7 16 -10 8 -3 12 -2 9 4 -6 10 -25 14 -25 6z"/>
<path d="M4182 10260 c0 -14 2 -19 5 -12 2 6 2 18 0 25 -3 6 -5 1 -5 -13z"/>
<path d="M1423 6980 c-48 -19 -58 -95 -18 -135 65 -66 171 8 135 94 -18 44
-67 61 -117 41z m81 -21 c19 -15 26 -30 26 -54 0 -42 -22 -65 -64 -65 -40 0
-63 17 -71 52 -6 22 -1 33 23 58 36 35 50 37 86 9z"/>
<path d="M1171 6684 c-61 -51 -26 -144 54 -144 78 0 115 92 58 145 -35 32 -73
32 -112 -1z m104 -19 c30 -30 31 -54 4 -89 -25 -32 -64 -34 -96 -4 -29 27 -30
71 -3 98 27 27 66 25 95 -5z"/>
<path d="M1673 6593 c-30 -6 -63 -50 -62 -82 1 -23 2 -22 9 8 10 44 30 62 69
63 38 1 78 -33 84 -71 l4 -26 1 25 c2 29 -34 76 -63 83 -11 2 -30 2 -42 0z"/>
<path d="M967 6506 c-14 -13 -29 -35 -32 -49 -9 -35 18 -82 55 -97 27 -11 37
-11 66 3 59 29 71 92 25 138 -37 36 -78 38 -114 5z"/>
<path d="M6215 2245 c-44 -43 -29 -106 30 -131 40 -16 75 -7 99 28 57 81 -59
174 -129 103z"/>
<path d="M4440 2043 c-8 -3 -25 -15 -37 -26 -27 -24 -31 -81 -8 -114 19 -27
77 -40 110 -25 31 14 57 65 49 96 -11 45 -74 83 -114 69z"/>
<path d="M10763 13921 c-76 -47 -44 -161 44 -161 89 0 123 114 49 160 -41 25
-53 25 -93 1z m90 -29 c23 -20 22 -74 -2 -96 -48 -44 -127 10 -105 71 17 49
65 60 107 25z"/>
<path d="M13033 13902 c23 -25 21 -78 -3 -102 -26 -26 -60 -25 -94 1 -14 11
-26 16 -26 11 0 -14 25 -32 59 -42 43 -12 95 23 99 67 3 32 -22 83 -41 83 -5
0 -3 -8 6 -18z"/>
<path d="M12902 13850 c0 -14 2 -19 5 -12 2 6 2 18 0 25 -3 6 -5 1 -5 -13z"/>
<path d="M9663 13820 c-22 -9 -53 -57 -53 -84 0 -8 12 -28 26 -45 21 -26 33
-31 69 -31 35 0 48 5 64 26 31 40 28 87 -10 118 -32 27 -58 31 -96 16z"/>
<path d="M11511 13274 c-35 -45 -21 -107 30 -128 40 -17 75 -10 99 22 26 32
25 72 -1 106 -16 21 -29 26 -64 26 -35 0 -48 -5 -64 -26z"/>
<path d="M10973 13168 c-46 -100 -57 -120 -70 -125 -11 -4 -9 -8 9 -17 12 -6
33 -27 46 -46 20 -30 23 -43 17 -85 l-6 -51 139 -137 140 -137 738 0 739 -1
255 -250 c140 -138 494 -486 785 -773 292 -287 554 -544 583 -570 l52 -49 0
65 0 64 -337 335 c-186 184 -545 541 -798 792 l-460 457 -735 0 -735 1 -164
159 -164 160 -5 115 c-3 63 -8 115 -12 115 -4 0 -11 -10 -17 -22z"/>
<path d="M9770 13070 c-11 -11 -19 -30 -19 -42 l2 -23 4 22 c11 55 88 71 123
26 25 -32 21 -79 -8 -102 -12 -10 -13 -12 -2 -9 22 6 43 56 36 84 -16 61 -94
86 -136 44z"/>
<path d="M9751 12987 c-1 -24 46 -67 73 -66 15 0 10 4 -16 15 -23 10 -41 26
-47 42 -6 19 -10 21 -10 9z"/>
<path d="M10828 12975 c-32 -18 -42 -44 -33 -85 8 -34 31 -50 72 -50 77 1 104
90 41 134 -27 19 -45 20 -80 1z"/>
<path d="M8798 12163 c7 -3 16 -2 19 1 4 3 -2 6 -13 5 -11 0 -14 -3 -6 -6z"/>
<path d="M8621 11804 c-22 -18 -31 -35 -31 -55 0 -40 40 -79 80 -79 39 0 80
39 80 75 0 32 -49 85 -78 85 -11 0 -34 -12 -51 -26z"/>
<path d="M11331 11233 c-150 -153 -379 -384 -507 -514 -129 -130 -234 -241
-234 -248 0 -15 27 -14 33 2 4 10 6 10 6 0 1 -19 60 -16 67 2 7 17 94 22 94 5
0 -6 9 -6 26 0 14 6 38 10 54 10 24 0 28 -4 27 -27 -1 -16 -5 -30 -8 -33 -3
-3 3 -14 13 -25 18 -19 19 -19 12 -1 -6 16 -4 18 10 13 13 -5 27 2 47 24 16
17 29 33 29 35 0 10 -39 3 -43 -8 -3 -8 -6 -5 -6 6 -1 15 5 17 31 14 30 -5 47
10 347 308 l316 313 265 1 265 0 685 -680 685 -680 427 0 428 0 0 125 0 125
-258 0 -258 0 -753 755 -754 755 -386 0 -386 0 -274 -277z"/>
<path d="M11416 10789 c-140 -144 -253 -265 -250 -270 3 -5 -2 -6 -10 -3 -9 3
-16 1 -16 -5 0 -7 -12 -23 -27 -36 -24 -21 -26 -26 -13 -35 8 -5 34 -10 57
-10 23 0 45 -4 48 -10 3 -5 30 -10 60 -10 34 0 55 -5 58 -12 3 -10 7 -10 19 0
12 9 34 11 82 6 55 -6 66 -10 66 -25 0 -22 51 -34 116 -26 37 4 44 2 44 -13 0
-13 7 -16 28 -14 15 2 52 -2 82 -8 30 -6 76 -10 101 -9 31 1 52 -3 62 -14 9
-8 31 -16 49 -16 23 -1 26 -3 11 -6 -24 -5 -32 -22 -10 -24 6 -1 23 -2 37 -2
28 -2 40 -34 18 -48 -10 -6 -10 -9 0 -9 6 0 12 -7 12 -15 0 -8 7 -15 15 -15 8
0 15 7 15 15 0 8 -5 15 -11 15 -5 0 -8 4 -5 9 10 15 119 19 133 5 7 -7 33 -16
56 -19 31 -5 46 -13 52 -28 9 -19 19 -22 83 -25 55 -2 72 -6 72 -17 0 -10 12
-15 38 -16 20 -1 29 -3 20 -6 -10 -2 -18 -8 -18 -13 0 -4 -10 -11 -22 -15 -62
-21 -65 -23 -35 -24 15 -1 27 4 27 9 0 15 68 12 98 -4 15 -8 44 -18 65 -21 38
-6 39 -7 41 -75 1 -27 6 -28 47 -16 23 6 27 13 26 42 -1 32 -2 33 -20 17 -16
-15 -19 -15 -27 -3 -6 8 -10 20 -10 25 0 6 5 3 10 -5 7 -12 12 -12 22 -2 10
10 10 15 -2 22 -8 5 -11 10 -6 10 5 0 3 7 -4 15 -7 8 -16 12 -21 9 -5 -3 -8
-1 -7 4 2 5 -9 22 -25 38 -246 255 -403 409 -418 410 -10 1 -16 -3 -13 -7 3
-5 -3 -10 -13 -11 -31 -2 -42 -5 -101 -29 -37 -15 -74 -10 -130 16 -70 32
-103 67 -135 141 -32 74 -33 97 -6 165 47 121 124 174 248 172 40 -1 79 -7 84
-12 6 -6 17 -11 25 -11 7 0 20 -7 28 -15 9 -8 12 -15 9 -15 -4 0 14 -20 40
-44 32 -29 43 -45 34 -48 -12 -4 -12 -7 0 -21 10 -13 12 -35 7 -84 -3 -38 -6
-78 -6 -90 0 -13 -5 -23 -10 -23 -6 0 -10 -5 -10 -10 0 -6 131 -140 291 -298
160 -158 339 -336 397 -395 90 -91 108 -105 118 -92 6 8 14 15 18 15 11 0 6
-28 -6 -33 -8 -3 5 -23 36 -53 30 -31 50 -44 53 -36 3 6 10 12 16 12 16 0 57
-45 57 -62 0 -8 5 -19 12 -26 9 -9 9 -12 0 -12 -7 0 -15 7 -18 15 -4 8 -11 15
-17 15 -7 0 1 -12 16 -27 27 -27 29 -27 42 -10 9 12 15 15 20 7 4 -6 13 -9 21
-6 9 3 16 -4 20 -19 4 -18 13 -25 30 -25 13 0 24 5 24 10 0 6 -7 10 -15 10 -8
0 -15 5 -15 10 0 25 83 -8 95 -38 4 -12 -6 -14 -55 -10 -60 4 -61 4 -58 -21 2
-13 9 -26 16 -29 8 -2 10 2 5 13 -6 16 -4 16 18 2 20 -13 97 -16 512 -19 l487
-4 0 99 0 100 -439 -6 c-385 -6 -441 -5 -452 9 -7 8 -18 13 -25 10 -8 -3 -11
0 -7 10 3 7 0 15 -6 15 -6 1 -17 2 -23 3 -7 1 -12 9 -10 17 1 9 -19 36 -45 61
-27 25 -318 316 -647 646 l-600 602 -237 0 -237 0 -256 -261z m174 -409 c0 -5
-13 -10 -30 -10 -16 0 -30 5 -30 10 0 6 14 10 30 10 17 0 30 -4 30 -10z m480
-130 c0 -5 -4 -10 -10 -10 -5 0 -10 5 -10 10 0 6 5 10 10 10 6 0 10 -4 10 -10z
m970 -391 c0 -6 -4 -7 -10 -4 -5 3 -10 11 -10 16 0 6 5 7 10 4 6 -3 10 -11 10
-16z m100 -90 c15 -28 4 -38 -15 -13 -17 22 -19 34 -5 34 5 0 14 -9 20 -21z
m120 -65 c0 -14 -3 -14 -15 -4 -8 7 -15 14 -15 16 0 2 7 4 15 4 8 0 15 -7 15
-16z m185 -14 c3 -5 1 -10 -4 -10 -6 0 -11 5 -11 10 0 6 2 10 4 10 3 0 8 -4
11 -10z m-112 -25 c23 -32 13 -50 -17 -30 -12 8 -25 12 -29 9 -3 -3 -4 2 -2
13 2 10 4 21 4 26 2 15 27 5 44 -18z m47 -45 c0 -5 -5 -10 -11 -10 -5 0 -7 5
-4 10 3 6 8 10 11 10 2 0 4 -4 4 -10z"/>
<path d="M10250 10530 c0 -5 7 -10 15 -10 8 0 15 5 15 10 0 6 -7 10 -15 10 -8
0 -15 -4 -15 -10z"/>
<path d="M9655 10470 c3 -5 28 -10 56 -10 27 0 49 5 49 10 0 6 -25 10 -56 10
-34 0 -53 -4 -49 -10z"/>
<path d="M10555 10448 c-17 -18 -17 -20 -3 -15 15 5 16 4 5 -13 -6 -11 -18
-20 -27 -20 -12 0 -12 -2 2 -16 12 -13 20 -14 36 -5 13 7 19 17 16 26 -5 12 4
15 50 15 31 0 56 5 56 10 0 6 -21 10 -46 10 -28 0 -51 6 -58 14 -9 12 -14 11
-31 -6z"/>
<path d="M10848 10463 c7 -3 16 -2 19 1 4 3 -2 6 -13 5 -11 0 -14 -3 -6 -6z"/>
<path d="M9447 10433 c-15 -15 -4 -18 53 -15 33 2 58 8 54 13 -6 10 -97 12
-107 2z"/>
<path d="M11069 10433 c-1 -5 -1 -11 0 -15 0 -5 -5 -8 -13 -8 -21 0 -8 -38 15
-45 23 -7 59 2 59 16 0 5 -4 9 -10 9 -5 0 -10 9 -10 21 0 16 -4 19 -21 14 -15
-5 -19 -4 -15 4 4 6 5 11 2 11 -3 0 -7 -3 -7 -7z"/>
<path d="M10798 10423 c7 -3 16 -2 19 1 4 3 -2 6 -13 5 -11 0 -14 -3 -6 -6z"/>
<path d="M10495 10391 c-3 -5 -2 -12 3 -15 5 -3 9 1 9 9 0 17 -3 19 -12 6z"/>
<path d="M11210 10381 c0 -9 48 -21 86 -21 15 0 24 6 24 15 0 12 -13 15 -55
15 -30 0 -55 -4 -55 -9z"/>
<path d="M8930 10360 c0 -5 16 -10 35 -10 19 0 35 5 35 10 0 6 -16 10 -35 10
-19 0 -35 -4 -35 -10z"/>
<path d="M10282 10358 c2 -5 8 -9 13 -9 5 0 11 4 13 9 1 5 -4 9 -13 9 -9 0
-14 -4 -13 -9z"/>
<path d="M10800 10353 c0 -7 4 -13 9 -13 5 0 11 6 14 13 3 8 -1 14 -9 14 -8 0
-14 -6 -14 -14z"/>
<path d="M11373 10363 c9 -2 25 -2 35 0 9 3 1 5 -18 5 -19 0 -27 -2 -17 -5z"/>
<path d="M10291 10314 c0 -11 3 -14 6 -6 3 7 2 16 -1 19 -3 4 -6 -2 -5 -13z"/>
<path d="M11665 10293 c11 -3 26 -10 33 -15 9 -8 12 -6 12 6 0 12 -9 16 -32
15 -22 -1 -26 -3 -13 -6z"/>
<path d="M8578 10253 c6 -2 18 -2 25 0 6 3 1 5 -13 5 -14 0 -19 -2 -12 -5z"/>
<path d="M11830 10247 c0 -19 10 -27 26 -20 21 8 17 33 -6 33 -11 0 -20 -6
-20 -13z"/>
<path d="M8400 10205 c0 -11 -12 -15 -50 -15 -43 0 -50 -3 -50 -20 0 -12 7
-20 16 -20 14 0 14 3 4 15 -11 13 -6 15 33 15 29 0 49 5 54 14 4 8 19 16 33
19 21 4 20 4 -7 6 -23 1 -33 -3 -33 -14z"/>
<path d="M8205 10160 c-3 -5 1 -10 10 -10 9 0 13 5 10 10 -3 6 -8 10 -10 10
-2 0 -7 -4 -10 -10z"/>
<path d="M12145 10160 c-4 -6 5 -10 20 -10 15 0 24 4 20 10 -3 6 -12 10 -20
10 -8 0 -17 -4 -20 -10z"/>
<path d="M8100 10120 c0 -22 7 -25 29 -11 16 10 6 31 -15 31 -8 0 -14 -9 -14
-20z"/>
<path d="M12228 10133 c7 -3 16 -2 19 1 4 3 -2 6 -13 5 -11 0 -14 -3 -6 -6z"/>
<path d="M12350 10059 c0 -5 9 -9 20 -9 11 0 20 2 20 4 0 2 -9 6 -20 9 -11 3
-20 1 -20 -4z"/>
<path d="M7890 10044 c0 -12 6 -15 23 -10 12 3 25 6 30 6 4 0 7 5 7 10 0 6
-13 10 -30 10 -21 0 -30 -5 -30 -16z"/>
<path d="M12125 10041 c-3 -5 -1 -12 5 -16 5 -3 10 1 10 9 0 18 -6 21 -15 7z"/>
<path d="M12538 10013 c7 -3 16 -2 19 1 4 3 -2 6 -13 5 -11 0 -14 -3 -6 -6z"/>
<path d="M12746 9991 c-4 -5 -1 -21 6 -36 10 -22 9 -28 -3 -36 -11 -7 -6 -16
26 -44 42 -37 61 -43 68 -22 3 8 11 3 25 -13 24 -30 37 -23 20 11 -14 26 -57
35 -70 15 -9 -13 -14 -8 -22 27 -6 26 -5 28 16 22 16 -4 19 -3 9 3 -7 5 -11
15 -7 21 5 7 1 9 -9 5 -9 -4 -15 -3 -14 2 4 21 -2 28 -11 14 -8 -12 -10 -10
-8 9 3 24 -15 40 -26 22z"/>
<path d="M7500 9834 c0 -9 5 -14 12 -12 18 6 21 28 4 28 -9 0 -16 -7 -16 -16z"/>
<path d="M7542 9838 c-7 -7 -12 -16 -12 -21 0 -12 30 -41 36 -35 8 9 -8 38
-17 32 -5 -3 -6 2 -3 11 5 13 9 13 22 3 13 -11 14 -10 11 1 -7 20 -22 24 -37
9z"/>
<path d="M12872 9798 c5 -15 28 -18 29 -3 0 6 -7 12 -17 13 -10 3 -15 -1 -12
-10z"/>
<path d="M12940 9793 c0 -15 18 -35 27 -32 5 2 1 12 -9 22 -10 9 -18 14 -18
10z"/>
<path d="M12915 9759 c-4 -6 -5 -13 -2 -16 7 -7 27 6 27 18 0 12 -17 12 -25
-2z"/>
<path d="M12980 9738 c0 -2 9 -11 20 -21 11 -9 20 -13 20 -7 0 5 -9 14 -20 20
-11 6 -20 9 -20 8z"/>
<path d="M7234 9705 c-18 -14 -18 -14 4 -8 12 3 22 9 22 14 0 12 -3 11 -26 -6z"/>
<path d="M7487 9673 c-4 -3 -7 -11 -7 -17 0 -6 5 -5 12 2 6 6 9 14 7 17 -3 3
-9 2 -12 -2z"/>
<path d="M13203 9663 c9 -9 19 -14 23 -11 10 10 -6 28 -24 28 -15 0 -15 -1 1
-17z"/>
<path d="M7097 9644 c-13 -13 -7 -44 8 -44 8 0 15 7 15 15 0 8 0 18 1 22 1 10
-16 15 -24 7z"/>
<path d="M13300 9574 c0 -3 7 -12 15 -20 16 -17 18 -14 9 10 -6 15 -24 23 -24
10z"/>
<path d="M7128 9537 c-27 -5 -48 -13 -48 -17 0 -4 -7 -11 -16 -14 -12 -4 -14
-1 -9 14 4 11 2 20 -3 20 -13 0 -24 -29 -16 -43 4 -7 -4 0 -17 14 -28 30 -55
34 -55 7 0 -13 7 -17 26 -16 20 2 25 -1 24 -18 0 -14 4 -20 13 -17 14 6 18
-22 4 -31 -4 -3 -11 -27 -14 -53 -4 -37 -1 -53 14 -72 10 -13 19 -38 19 -56 0
-33 0 -33 -30 -22 -23 9 -32 8 -42 -2 -11 -12 -10 -13 5 -8 10 4 17 1 18 -6 0
-7 2 -51 5 -99 3 -60 1 -89 -7 -94 -11 -6 -168 -7 -280 0 -45 2 -46 2 -39 -23
l6 -26 210 0 209 0 0 236 c0 219 1 238 19 258 19 20 27 21 305 21 284 0 285 0
266 20 -11 11 -36 22 -56 24 -75 10 -466 12 -511 3z"/>
<path d="M8613 9509 c-23 -7 -33 -16 -33 -30 0 -20 0 -20 21 0 20 18 31 19
133 14 61 -3 156 -2 211 2 87 7 95 9 60 16 -56 11 -353 9 -392 -2z"/>
<path d="M9615 9510 c-23 -6 -12 -8 45 -10 208 -6 253 -5 257 8 4 9 -27 12
-134 11 -76 -1 -151 -5 -168 -9z"/>
<path d="M10145 9510 c-3 -5 -3 -10 2 -10 4 0 100 -2 212 -5 207 -6 306 0 266
16 -30 12 -473 11 -480 -1z"/>
<path d="M11245 9498 c125 -4 257 -4 305 1 65 6 12 8 -220 8 l-305 0 220 -9z"/>
<path d="M9512 9472 c-49 -46 -56 -90 -56 -367 -1 -219 1 -255 17 -290 22 -48
43 -72 82 -94 27 -14 122 -16 978 -21 l949 -5 19 -24 c14 -18 19 -39 19 -90 0
-105 11 -100 -245 -102 -131 -1 -225 -5 -233 -11 -7 -6 -28 -8 -50 -3 -20 4
-152 6 -292 5 -140 -1 -330 -2 -422 -1 -218 2 -257 -13 -273 -106 -4 -24 -11
-45 -16 -49 -5 -3 -9 -77 -9 -164 0 -131 -3 -161 -16 -174 -16 -16 -36 -18
-275 -21 -126 -2 -160 -16 -199 -86 l-25 -44 0 -521 0 -520 25 -38 c14 -20 44
-50 68 -66 l43 -28 732 -1 c403 0 800 -1 882 -2 83 0 165 -1 183 -1 148 0 321
1 392 2 47 0 145 -2 219 -5 117 -5 135 -4 152 11 11 10 34 17 52 17 35 0 46 8
75 57 14 23 19 43 15 67 -3 19 0 44 6 57 12 22 12 56 -1 406 -3 74 -4 76 -50
125 l-47 50 -965 1 c-764 1 -969 4 -981 14 -23 19 -21 170 3 200 l18 23 690 1
c755 1 731 -1 764 60 7 14 19 26 26 26 21 0 34 85 34 218 0 142 10 190 43 197
12 2 94 6 182 8 182 4 220 15 260 76 33 50 39 85 25 137 -11 37 -10 49 1 71
18 33 18 347 0 410 -28 100 -86 123 -320 123 -128 0 -150 2 -164 18 -12 14
-16 51 -19 197 -3 200 -14 242 -69 270 -40 21 -56 18 -31 -5 27 -25 24 2 26
-275 l1 -230 239 0 c237 0 238 0 257 -24 21 -26 25 -116 13 -264 -6 -64 -10
-77 -25 -77 -15 0 -18 -14 -24 -107 -3 -60 -8 -114 -10 -120 -3 -10 -64 -13
-260 -13 l-255 0 0 -232 c0 -128 -3 -243 -6 -255 l-6 -23 -769 0 -769 0 0
-255 0 -255 1030 0 1030 0 0 -255 0 -255 -1289 0 -1289 0 -7 73 c-3 39 -5 270
-3 512 l3 440 259 3 259 2 -5 254 c-4 176 -2 258 5 265 8 8 240 11 779 11
l768 0 0 74 c0 103 -8 134 -34 138 -20 3 -21 10 -26 108 l-5 105 -1012 5
c-996 5 -1013 5 -1032 25 -18 19 -19 39 -23 311 -3 275 -2 293 16 313 28 31 3
26 -32 -7z"/>
<path d="M6880 9460 c0 -12 17 -12 45 0 17 7 15 9 -12 9 -18 1 -33 -3 -33 -9z"/>
<path d="M6840 9430 c0 -5 5 -10 10 -10 6 0 10 5 10 10 0 6 -4 10 -10 10 -5 0
-10 -4 -10 -10z"/>
<path d="M8547 9408 c-10 -21 -17 -48 -17 -62 0 -13 -7 -31 -15 -40 -12 -11
-15 -42 -15 -145 0 -104 -3 -133 -16 -145 -13 -13 -43 -16 -172 -16 -86 0
-163 -4 -171 -9 -26 -17 45 -22 244 -19 l190 3 3 160 c1 88 -2 194 -6 235 l-9
75 -16 -37z"/>
<path d="M9236 9038 c-4 -216 -9 -401 -12 -410 -3 -10 -14 -18 -25 -18 -24 0
-21 98 -28 -925 l-6 -840 -257 -3 -258 -2 -1 252 c-1 139 -5 483 -8 763 l-6
510 -255 5 -255 5 -3 118 c-3 115 -3 117 -26 117 -22 0 -24 5 -30 79 -4 44 -7
119 -6 168 1 48 1 92 1 97 -1 6 -14 -3 -31 -19 -32 -31 -37 -53 -44 -202 -4
-78 -2 -93 11 -93 12 0 14 -8 8 -37 -4 -21 -9 -86 -12 -145 -5 -120 8 -162 66
-211 60 -50 128 -67 274 -67 73 0 137 -4 144 -8 31 -19 33 -70 33 -707 l0
-643 37 -72 c29 -58 43 -75 71 -87 51 -21 216 -30 247 -13 19 10 30 11 50 2
32 -15 72 -15 80 -2 4 6 33 8 73 4 51 -5 74 -2 97 10 17 9 37 16 46 16 17 0
49 32 70 70 12 21 15 184 18 915 2 490 4 1009 5 1155 1 371 -20 610 -54 610
-4 0 -10 -177 -14 -392z"/>
<path d="M13940 9410 c-250 -3 -407 -6 -347 -8 84 -2 107 -5 107 -16 0 -8 6
-17 13 -19 6 -3 -6 -6 -28 -6 -37 -1 -76 -15 -65 -23 3 -2 23 -13 44 -23 29
-15 40 -17 43 -7 7 19 57 14 82 -10 23 -20 23 -22 5 -35 -12 -9 -13 -13 -4
-13 7 0 21 7 30 15 16 15 21 12 58 -30 l41 -46 -22 -22 c-13 -13 -17 -22 -9
-25 9 -3 8 -8 -2 -18 -8 -8 -23 -11 -33 -8 -10 3 -6 -2 8 -12 24 -17 53 -19
283 -22 l256 -4 0 171 c0 94 -1 170 -2 169 -2 -2 -208 -5 -458 -8z m23 -254
c6 -14 -39 -33 -51 -21 -3 3 2 5 11 5 10 0 17 7 17 15 0 19 16 20 23 1z"/>
<path d="M6801 9324 c0 -11 3 -14 6 -6 3 7 2 16 -1 19 -3 4 -6 -2 -5 -13z"/>
<path d="M13563 9333 c9 -2 25 -2 35 0 9 3 1 5 -18 5 -19 0 -27 -2 -17 -5z"/>
<path d="M6645 9250 c3 -5 8 -10 11 -10 2 0 4 5 4 10 0 6 -5 10 -11 10 -5 0
-7 -4 -4 -10z"/>
<path d="M6615 9220 c3 -5 8 -10 11 -10 2 0 4 5 4 10 0 6 -5 10 -11 10 -5 0
-7 -4 -4 -10z"/>
<path d="M13700 9216 c0 -17 42 -29 51 -15 4 7 13 7 27 -2 16 -10 26 -10 47
-1 42 19 19 32 -56 32 -52 0 -69 -3 -69 -14z"/>
<path d="M6438 9119 c-22 -12 -23 -29 -4 -29 8 0 16 -6 19 -12 2 -7 8 -10 12
-5 5 4 3 13 -3 19 -15 15 -16 31 0 22 7 -4 8 -3 4 4 -8 14 -7 14 -28 1z"/>
<path d="M6614 9109 c-4 -7 -3 -9 4 -5 5 3 13 0 15 -6 4 -9 6 -10 6 -1 1 17
-16 25 -25 12z"/>
<path d="M6432 9056 c1 -15 8 -32 15 -37 16 -14 11 37 -5 53 -9 9 -12 6 -10
-16z"/>
<path d="M6460 9041 c0 -17 19 -22 37 -11 17 11 17 11 1 6 -10 -3 -18 -1 -18
4 0 6 -4 10 -10 10 -5 0 -10 -4 -10 -9z"/>
<path d="M14103 8999 c9 -5 17 -17 17 -25 0 -8 5 -12 10 -9 16 10 50 -5 50
-21 0 -8 4 -14 9 -14 5 0 8 -12 6 -27 -2 -16 -4 -34 -4 -41 -1 -8 -15 0 -33
19 -19 18 -34 27 -36 20 -2 -7 5 -20 17 -30 12 -10 21 -28 21 -40 0 -13 6 -21
16 -21 10 0 14 -6 10 -15 -6 -16 1 -18 77 -15 26 1 53 -3 60 -8 7 -5 21 -12
32 -15 11 -2 -10 -2 -47 1 -48 3 -68 1 -68 -7 0 -6 18 -11 43 -12 36 -1 38 -2
17 -9 -19 -6 -9 -8 38 -9 l62 -1 0 145 0 145 -157 0 c-112 -1 -153 -4 -140
-11z m180 -182 c-3 -5 -18 -6 -34 -3 -16 3 -29 1 -29 -4 0 -18 -18 -10 -23 9
-3 14 -1 18 9 14 10 -3 14 3 14 19 0 14 3 27 6 31 8 8 63 -56 57 -66z"/>
<path d="M13730 8940 c-18 -12 -2 -12 25 0 13 6 15 9 5 9 -8 0 -22 -4 -30 -9z"/>
<path d="M14160 8906 c0 -9 5 -16 10 -16 6 0 10 4 10 9 0 6 -4 13 -10 16 -5 3
-10 -1 -10 -9z"/>
<path d="M6232 8853 c5 -25 28 -28 28 -4 0 12 -6 21 -16 21 -9 0 -14 -7 -12
-17z"/>
<path d="M14270 8640 c0 -6 -34 -10 -82 -10 -94 0 -146 -18 -63 -22 28 -1 61
-3 75 -4 14 -1 53 -2 88 -3 42 -1 62 -5 62 -13 0 -7 7 -22 15 -32 12 -16 18
-17 27 -8 10 10 10 15 -2 22 -10 7 -11 10 -2 10 7 0 12 14 12 35 l0 35 -65 0
c-37 0 -65 -4 -65 -10z"/>
<path d="M6040 8629 c0 -5 4 -8 9 -5 5 4 11 1 13 -6 3 -8 7 -6 11 5 5 12 1 17
-13 17 -11 0 -20 -5 -20 -11z"/>
<path d="M6028 8603 c-10 -2 -15 -10 -11 -19 8 -21 33 -17 33 6 0 11 -1 19 -2
19 -2 -1 -11 -3 -20 -6z"/>
<path d="M6245 8590 c3 -5 10 -10 16 -10 5 0 9 5 9 10 0 6 -7 10 -16 10 -8 0
-12 -4 -9 -10z"/>
<path d="M14370 8210 c-12 -8 -10 -10 8 -10 13 0 20 4 17 10 -7 12 -6 12 -25
0z"/>
<path d="M5825 7589 c-11 -16 -1 -19 13 -3 7 8 8 14 3 14 -5 0 -13 -5 -16 -11z"/>
<path d="M6609 6498 c-10 -4 -19 -10 -19 -13 0 -3 57 -5 127 -5 77 0 123 4
118 9 -12 11 -199 19 -226 9z"/>
<path d="M7673 6483 c31 -2 83 -2 115 0 31 2 5 3 -58 3 -63 0 -89 -1 -57 -3z"/>
<path d="M8133 6483 c31 -2 83 -2 115 0 31 2 5 3 -58 3 -63 0 -89 -1 -57 -3z"/>
<path d="M9158 6483 c7 -3 16 -2 19 1 4 3 -2 6 -13 5 -11 0 -14 -3 -6 -6z"/>
<path d="M7511 6453 c-31 -25 -41 -108 -41 -348 0 -208 -7 -248 -35 -211 -8
11 -15 28 -15 38 0 24 -47 44 -121 54 -66 8 -77 16 -84 63 -22 137 -60 180
-173 196 -29 4 -59 13 -67 21 -7 8 -17 38 -20 68 -8 59 -38 120 -58 113 -8 -2
-13 -38 -15 -115 l-3 -112 109 0 c151 0 148 2 144 -157 -2 -71 -3 -73 -27 -73
-22 0 -25 -4 -25 -40 l0 -39 128 -3 127 -3 3 -132 3 -133 119 0 120 0 0 175
c0 167 -1 175 -20 175 -14 0 -20 9 -24 33 -10 61 -14 402 -5 425 10 27 8 27
-20 5z"/>
<path d="M6150 6335 l0 -115 53 0 c46 0 55 3 64 23 8 17 6 26 -7 40 -10 10
-20 32 -24 49 -8 39 -42 95 -67 108 -18 10 -19 6 -19 -105z"/>
<path d="M8382 6335 l-4 -115 41 0 c42 0 50 7 30 27 -6 6 -14 42 -16 80 -5 64
-25 123 -41 123 -4 0 -9 -52 -10 -115z"/>
<path d="M8997 6405 c-13 -9 -21 -34 -28 -82 -12 -93 -11 -286 1 -318 11 -28
3 -78 -10 -70 -5 3 -10 0 -12 -7 -3 -8 -15 -5 -40 10 -20 13 -69 29 -108 36
-40 8 -76 18 -82 24 -5 5 -13 37 -18 71 -8 60 -42 131 -62 131 -6 0 -7 -8 -3
-17 3 -10 3 -57 -1 -105 -6 -84 -8 -88 -30 -88 -21 0 -24 -5 -24 -40 l0 -39
128 -3 127 -3 3 -132 3 -133 119 0 120 0 0 175 c0 164 -1 175 -19 175 -25 0
-30 39 -32 225 -1 83 -4 162 -8 177 -5 24 -8 25 -24 13z"/>
<path d="M8490 6230 c0 -5 15 -10 33 -9 27 0 29 2 12 9 -28 12 -45 12 -45 0z"/>
<path d="M5387 6093 c-4 -3 -7 -28 -7 -55 0 -45 -2 -48 -25 -48 -22 0 -25 -4
-25 -40 l0 -40 375 0 375 0 0 39 c0 33 -4 40 -22 43 -19 2 -24 10 -26 48 -2
24 -9 48 -15 52 -15 9 -621 11 -630 1z"/>
<path d="M14363 5865 c-8 -23 4 -30 22 -12 19 20 19 27 0 27 -9 0 -18 -7 -22
-15z"/>
<path d="M14366 5814 c-4 -9 1 -14 14 -14 23 0 27 15 6 23 -8 3 -17 -1 -20 -9z"/>
<path d="M14305 5777 c-4 -12 -7 -25 -6 -29 1 -5 -3 -8 -9 -8 -5 0 -10 -6 -10
-14 0 -8 -6 -16 -12 -19 -22 -7 -1 -19 22 -12 15 5 19 12 15 26 -4 12 -1 21 9
25 17 7 22 39 7 48 -5 3 -12 -4 -16 -17z"/>
<path d="M14380 5741 c0 -5 -12 -11 -27 -13 -26 -3 -28 -6 -25 -45 3 -37 1
-43 -16 -43 -10 0 -24 -11 -30 -25 -6 -14 -16 -25 -22 -25 -5 0 -10 -16 -10
-35 0 -19 -3 -35 -8 -35 -13 0 -30 36 -23 49 4 6 6 24 3 40 l-4 28 -26 -27
c-15 -15 -34 -29 -42 -32 -8 -3 -11 -9 -7 -14 4 -5 11 -4 15 2 4 6 18 14 32
18 14 3 19 3 13 0 -7 -3 -13 -16 -13 -28 0 -12 -5 -27 -12 -34 -9 -9 -9 -12 0
-12 7 0 12 -5 12 -11 0 -6 -7 -8 -16 -5 -8 3 38 -48 103 -114 65 -66 119 -120
121 -120 1 0 2 110 2 245 0 157 -4 245 -10 245 -5 0 -10 -4 -10 -9z m-113
-287 c-3 -3 -12 -4 -19 -1 -8 3 -5 6 6 6 11 1 17 -2 13 -5z"/>
<path d="M14075 5580 c4 -6 11 -8 16 -5 14 9 11 15 -7 15 -8 0 -12 -5 -9 -10z"/>
<path d="M14110 5570 c0 -5 5 -10 10 -10 6 0 10 5 10 10 0 6 -4 10 -10 10 -5
0 -10 -4 -10 -10z"/>
<path d="M14050 5456 c0 -2 7 -9 15 -16 13 -11 14 -10 9 4 -5 14 -24 23 -24
12z"/>
<path d="M14020 5445 c0 -2 12 -16 28 -30 l27 -26 -29 13 c-23 10 -30 10 -34
0 -2 -6 -16 -12 -30 -12 -30 0 -60 -15 -50 -25 3 -3 33 -6 66 -6 68 -1 77 -18
19 -37 -32 -10 -31 -10 16 -11 26 -1 48 0 50 1 6 6 67 -38 78 -56 7 -12 64
-70 126 -131 l113 -109 0 74 0 73 -86 81 c-49 45 -94 80 -103 78 -12 -2 -13
-1 -3 6 9 6 5 14 -15 33 -14 13 -23 18 -19 12 5 -9 2 -11 -8 -7 -8 3 -16 15
-18 26 -2 11 -14 28 -28 37 -24 15 -24 15 -11 -2 12 -15 11 -17 -13 -17 -14 0
-34 9 -43 20 -16 18 -33 26 -33 15z m86 -111 c-22 -16 -36 -18 -36 -6 0 13 7
18 32 19 22 2 22 1 4 -13z m69 -4 c3 -5 1 -10 -4 -10 -6 0 -11 5 -11 10 0 6 2
10 4 10 3 0 8 -4 11 -10z"/>
<path d="M13775 5390 c-3 -5 1 -10 10 -10 9 0 13 5 10 10 -3 6 -8 10 -10 10
-2 0 -7 -4 -10 -10z"/>
<path d="M13890 5370 c0 -5 7 -10 15 -10 8 0 15 5 15 10 0 6 -7 10 -15 10 -8
0 -15 -4 -15 -10z"/>
<path d="M14010 5233 c-122 -9 -283 -25 -296 -30 -16 -6 -21 -103 -5 -103 15
0 19 23 9 44 -8 14 -7 17 4 14 7 -3 27 1 45 9 46 19 101 16 139 -7 26 -17 35
-31 43 -71 7 -32 8 -57 2 -67 -7 -13 9 -36 82 -109 l91 -93 138 0 138 0 0 60
c0 36 -4 60 -11 60 -6 0 -52 41 -102 90 -224 220 -207 208 -277 203z"/>
<path d="M13557 5068 c-18 -9 -18 -11 4 -34 25 -27 49 -33 28 -7 -10 11 -10
14 -1 9 16 -10 16 18 -1 32 -8 7 -18 7 -30 0z"/>
<path d="M13395 5060 c-4 -6 7 -10 25 -10 18 0 29 4 25 10 -3 6 -15 10 -25 10
-10 0 -22 -4 -25 -10z"/>
<path d="M13703 5038 c3 -19 0 -28 -9 -28 -8 0 -19 -9 -26 -20 -8 -12 -24 -20
-40 -20 -25 0 -27 -3 -22 -29 3 -16 1 -38 -6 -51 -11 -20 -3 -30 91 -126 l103
-104 303 0 303 0 0 50 0 50 -153 0 -153 0 -100 95 c-95 92 -100 95 -135 90
-57 -10 -103 15 -134 72 -20 38 -25 42 -22 21z"/>
<path d="M13295 4880 c-3 -5 -1 -10 4 -10 6 0 11 5 11 10 0 6 -2 10 -4 10 -3
0 -8 -4 -11 -10z"/>
<path d="M13363 4863 c-10 -4 -9 -8 2 -20 20 -19 19 -52 -1 -60 -8 -3 -13 -12
-10 -19 6 -15 -6 -19 -18 -7 -15 15 -42 11 -54 -8 -11 -17 -4 -28 75 -104 l87
-85 478 0 c471 0 478 0 478 20 0 20 -7 20 -321 20 l-320 0 -107 105 c-104 104
-106 105 -153 105 -26 0 -55 3 -65 7 -12 4 -15 3 -10 -6 6 -9 3 -9 -13 1 -12
7 -19 18 -17 25 6 15 -15 32 -31 26z m-33 -123 c0 -5 -5 -10 -11 -10 -5 0 -7
-5 -4 -10 4 -6 16 -8 27 -4 18 5 19 4 7 -9 -10 -10 -19 -12 -31 -6 -20 11 -20
11 -12 33 7 18 24 22 24 6z"/>
<path d="M7380 4846 c0 -2 7 -6 15 -10 8 -3 15 -1 15 4 0 6 -7 10 -15 10 -8 0
-15 -2 -15 -4z"/>
<path d="M13270 4802 c0 -22 -5 -32 -15 -32 -8 0 -15 -5 -15 -11 0 -6 3 -9 8
-7 81 39 102 58 64 58 -10 0 -23 5 -30 12 -9 9 -12 5 -12 -20z"/>
<path d="M13235 4800 c3 -5 11 -10 16 -10 6 0 7 5 4 10 -3 6 -11 10 -16 10 -6
0 -7 -4 -4 -10z"/>
<path d="M13090 4760 c0 -5 5 -10 10 -10 6 0 10 5 10 10 0 6 -4 10 -10 10 -5
0 -10 -4 -10 -10z"/>
<path d="M7193 4729 c14 -8 22 -8 30 0 8 8 3 11 -18 11 -26 -1 -28 -2 -12 -11z"/>
<path d="M13094 4695 c9 -13 16 -31 16 -38 0 -8 7 -20 15 -27 22 -18 20 -138
-2 -186 -17 -36 -17 -36 6 -55 22 -18 46 -19 466 -19 243 0 524 -3 623 -7
l182 -6 0 66 0 67 -493 0 -494 0 -67 65 c-38 36 -72 62 -77 59 -5 -3 -8 0 -7
8 2 7 -2 12 -9 11 -6 -1 -16 12 -22 30 -9 26 -14 29 -21 17 -8 -13 -10 -12
-10 3 0 20 -18 22 -43 3 -13 -10 -15 -15 -5 -19 11 -4 11 -7 0 -18 -7 -8 -12
-9 -11 -4 5 25 -24 75 -43 75 -19 0 -19 -1 -4 -25z"/>
<path d="M7478 4573 c6 -2 18 -2 25 0 6 3 1 5 -13 5 -14 0 -19 -2 -12 -5z"/>
<path d="M7515 4561 c-16 -7 -11 -9 23 -12 29 -3 42 -1 42 8 0 14 -34 16 -65
4z"/>
<path d="M7620 4502 c0 -5 7 -13 16 -16 24 -9 54 -7 54 4 0 6 -9 10 -19 10
-11 0 -26 3 -35 6 -9 3 -16 2 -16 -4z"/>
<path d="M12681 4488 c-1 -10 4 -18 11 -18 6 0 3 -7 -8 -15 -11 -8 -41 -14
-71 -15 -51 0 -53 1 -54 28 -2 23 -2 24 -6 5 -3 -15 -12 -23 -24 -23 -11 0
-19 -7 -19 -16 0 -9 5 -12 13 -8 9 5 9 4 0 -6 -10 -11 -9 -17 3 -31 14 -16 18
-16 30 -4 8 7 14 21 14 30 0 13 9 16 50 14 29 -2 55 2 62 9 7 7 18 12 25 12 7
0 13 7 13 15 0 8 -6 15 -14 15 -8 0 -17 6 -19 13 -3 7 -6 5 -6 -5z m-136 -88
c3 -5 1 -10 -4 -10 -6 0 -11 5 -11 10 0 6 2 10 4 10 3 0 8 -4 11 -10z"/>
<path d="M12330 4476 c0 -8 4 -17 9 -20 5 -4 7 3 4 14 -6 23 -13 26 -13 6z"/>
<path d="M7780 4441 c0 -10 19 -25 25 -20 1 2 -3 10 -11 17 -8 7 -14 8 -14 3z"/>
<path d="M12700 4415 c0 -8 -9 -15 -20 -15 -11 0 -20 -4 -20 -9 0 -4 -20 -11
-45 -14 -57 -6 -62 -10 -37 -35 11 -11 23 -18 26 -14 3 3 6 -1 6 -8 0 -15 79
-100 93 -100 4 0 5 4 2 10 -4 6 2 7 17 1 14 -5 390 -10 851 -10 l827 -2 0 41
0 40 -642 0 -643 0 -37 35 c-21 18 -38 29 -38 24 0 -6 -16 -17 -37 -25 -56
-24 -136 -13 -190 25 -24 17 -47 31 -52 31 -5 0 -11 9 -14 20 -6 24 -47 28
-47 5z"/>
<path d="M12250 4371 c0 -11 -9 -22 -19 -26 -11 -3 -22 -13 -25 -21 -3 -8 -2
-12 4 -9 6 3 10 1 10 -4 0 -8 6 -8 18 -2 9 6 30 12 45 16 24 5 27 8 17 20 -14
17 -14 17 23 19 16 1 27 -3 27 -11 0 -7 -5 -13 -11 -13 -5 0 -7 -4 -4 -10 10
-17 25 -11 25 10 0 21 15 27 25 10 3 -5 1 -10 -4 -10 -6 0 -11 -4 -11 -10 0
-15 17 -12 24 5 10 27 -4 41 -46 44 -23 1 -45 4 -49 7 -5 2 -13 -5 -19 -16 -7
-13 -7 -20 0 -20 5 0 10 -4 10 -10 0 -5 -9 -10 -20 -10 -16 0 -19 5 -13 30 3
17 3 30 -1 30 -3 0 -6 -9 -6 -19z"/>
<path d="M12417 4374 c-3 -4 0 -13 8 -20 18 -18 31 -18 16 -1 -6 8 -8 17 -4
20 3 4 2 7 -4 7 -5 0 -12 -3 -16 -6z"/>
<path d="M12006 4352 c-3 -5 4 -18 16 -28 21 -19 21 -19 8 6 -17 33 -17 33
-24 22z"/>
<path d="M12438 4333 c-9 -2 -20 -17 -23 -34 -6 -25 -11 -29 -41 -29 -33 0
-47 14 -22 22 9 3 9 6 0 12 -7 4 -12 2 -12 -3 0 -6 -4 -11 -10 -11 -5 0 -10 7
-10 15 0 18 -12 19 -28 3 -8 -8 -8 -17 -1 -30 17 -31 3 -32 -26 -1 -15 15 -25
22 -23 15 2 -7 44 -53 93 -103 l90 -89 340 0 c187 0 631 -3 988 -7 l647 -6 0
36 0 37 -873 0 -873 0 -64 65 c-36 36 -70 63 -77 61 -7 -3 -12 -2 -11 2 1 4
-3 17 -10 30 -13 22 -21 24 -54 15z m-119 -57 c7 -8 8 -17 3 -20 -6 -3 -12 3
-15 14 -6 24 -4 25 12 6z"/>
<path d="M12040 4292 c0 -7 7 -15 15 -18 8 -4 15 -10 15 -15 0 -4 68 -76 151
-158 l151 -151 1014 0 1014 0 0 40 0 40 -1003 0 -1003 0 -54 55 c-30 30 -60
55 -68 55 -7 0 -11 3 -9 8 2 4 -9 18 -26 32 -17 14 -28 20 -24 13 4 -6 3 -14
-3 -18 -5 -3 -10 -1 -10 5 0 7 -8 9 -22 4 l-23 -6 23 19 c17 16 19 23 10 30
-17 13 -51 27 -60 25 -5 -1 -8 3 -8 8 0 6 5 10 11 10 5 0 7 5 3 11 -4 7 -9 7
-13 2 -9 -14 -40 -23 -46 -13 -3 4 -2 10 2 13 5 2 3 3 -3 1 -6 -1 -17 3 -23 9
-8 8 -11 8 -11 -1z m140 -66 c0 -2 -7 -7 -16 -10 -8 -3 -12 -2 -9 4 6 10 25
14 25 6z"/>
<path d="M11855 4269 c-4 -6 -5 -12 -2 -15 2 -3 7 2 10 11 7 17 1 20 -8 4z"/>
<path d="M11910 4250 c0 -5 5 -10 11 -10 5 0 7 5 4 10 -3 6 -8 10 -11 10 -2 0
-4 -4 -4 -10z"/>
<path d="M8310 4230 c0 -5 7 -10 15 -10 8 0 15 5 15 10 0 6 -7 10 -15 10 -8 0
-15 -4 -15 -10z"/>
<path d="M11380 4234 c0 -1 6 -7 14 -13 10 -9 15 -8 19 2 3 8 -3 13 -14 13
-11 0 -19 -1 -19 -2z"/>
<path d="M11958 4223 c-17 -20 -31 -51 -32 -73 -1 -10 -11 -14 -33 -13 -20 1
-33 -3 -33 -10 0 -7 -12 1 -26 17 -16 18 -22 31 -15 35 7 4 3 14 -10 25 -12 9
-24 15 -27 11 -4 -3 -2 -9 4 -13 17 -11 22 -35 13 -54 -7 -12 2 -28 36 -63 26
-27 50 -43 57 -39 6 4 8 3 4 -4 -4 -6 73 -90 179 -196 l185 -186 1070 0 1070
0 0 115 0 115 -1032 0 -1033 0 -95 90 c-140 133 -143 135 -152 132 -5 -1 -7 2
-3 8 3 5 -5 14 -19 20 -14 5 -26 16 -26 23 0 9 -9 12 -28 9 -37 -5 -58 18 -42
47 13 26 8 27 -12 4z m22 -97 c0 -2 -11 -6 -25 -8 -13 -3 -22 -1 -19 3 5 9 44
13 44 5z m-84 -33 c7 -10 14 -22 14 -28 0 -5 -7 1 -16 13 -20 29 -38 29 -23 0
12 -23 12 -23 -10 -4 -16 15 -18 21 -9 28 19 12 29 10 44 -9z"/>
<path d="M8407 4194 c-12 -12 4 -24 33 -24 16 0 31 4 34 9 10 16 -52 30 -67
15z"/>
<path d="M8306 4164 c-3 -9 -6 -48 -6 -87 l0 -72 165 -165 165 -165 0 -309 0
-310 155 -153 155 -153 0 -488 0 -487 119 -120 118 -120 -5 -752 c-2 -429 -8
-750 -13 -747 -5 3 -9 -1 -9 -9 0 -8 7 -18 16 -21 9 -3 145 -6 304 -6 l288 0
-4 1013 c-3 556 -7 1045 -10 1084 l-6 73 -134 132 -134 133 0 196 0 197 -267
262 -268 261 -3 259 -4 258 51 52 c28 29 48 56 45 61 -3 5 -2 9 3 8 4 -1 15 1
23 5 20 9 15 96 -6 96 -8 0 -14 -8 -14 -18 0 -26 -18 -40 -45 -34 -21 3 -23 7
-14 23 8 17 6 19 -20 19 -24 0 -29 -3 -24 -17 6 -14 1 -15 -38 -9 -24 3 -70 9
-101 13 -32 3 -58 10 -58 14 0 5 -41 9 -91 9 -67 0 -94 4 -105 15 -9 8 -11 15
-5 15 6 0 11 5 11 10 0 6 -16 10 -35 10 -19 0 -35 -4 -35 -10 0 -5 -13 -10
-30 -10 -22 0 -30 5 -30 18 0 11 -12 22 -33 30 -45 16 -64 15 -71 -4z m629
-143 c-8 -13 -65 -15 -65 -2 0 6 15 11 33 13 38 4 41 3 32 -11z m110 9 c3 -5
2 -10 -4 -10 -5 0 -13 5 -16 10 -3 6 -2 10 4 10 5 0 13 -4 16 -10z m-46 -61
c-16 -10 -23 -4 -14 10 3 6 11 8 17 5 6 -4 5 -9 -3 -15z"/>
<path d="M8580 4160 c0 -13 7 -20 20 -20 13 0 20 7 20 20 0 13 -7 20 -20 20
-13 0 -20 -7 -20 -20z"/>
<path d="M11870 4171 c0 -6 5 -13 10 -16 6 -3 10 1 10 9 0 9 -4 16 -10 16 -5
0 -10 -4 -10 -9z"/>
<path d="M11216 4154 c-4 -10 -1 -14 6 -12 15 5 23 28 10 28 -5 0 -13 -7 -16
-16z"/>
<path d="M11427 4156 c-4 -10 -1 -13 8 -9 8 3 12 9 9 14 -7 12 -11 11 -17 -5z"/>
<path d="M11460 4151 c0 -6 5 -11 10 -11 6 0 10 -4 10 -10 0 -5 -8 -7 -17 -3
-11 3 -8 -4 10 -19 15 -14 27 -32 28 -39 0 -8 4 -5 9 6 8 19 9 19 9 -2 1 -14
99 -119 302 -322 l302 -301 1138 0 1139 0 0 43 0 42 -1121 -3 -1121 -3 -152
148 c-83 82 -185 181 -226 220 -41 38 -104 98 -140 132 -54 51 -65 59 -71 44
-5 -16 -7 -15 -18 5 -9 17 -9 22 0 22 7 0 0 11 -15 25 -15 14 -32 23 -37 19
-5 -3 -16 0 -24 6 -11 9 -15 9 -15 1z"/>
<path d="M10678 4120 c-4 -19 -13 -82 -20 -140 l-13 -105 -6 70 c-3 39 -6
-135 -7 -385 l-2 -455 153 -153 152 -152 1630 0 1630 0 98 -98 97 -97 3 -310
c1 -207 3 -136 5 214 l2 523 -1702 -7 -1703 -7 -112 114 -112 113 -4 300 c-4
281 -7 316 -35 395 -6 17 -8 32 -10 73 -1 16 -8 27 -17 27 -10 0 -15 15 -17
58 -3 52 -4 54 -10 22z"/>
<path d="M8690 4115 c7 -8 19 -15 26 -15 8 0 14 7 14 15 0 10 -10 15 -26 15
-22 0 -25 -2 -14 -15z"/>
<path d="M10876 4090 c-4 -25 -9 -72 -12 -104 -4 -40 -9 -54 -15 -45 -5 8 -9
-126 -9 -331 l0 -345 88 -87 87 -86 1693 -4 1692 -4 0 28 0 28 -1613 0 -1612
0 -137 138 -137 137 -1 310 c-1 171 -5 333 -9 360 l-7 50 -8 -45z"/>
<path d="M11320 4121 c0 -5 7 -11 14 -14 10 -4 13 -1 9 9 -6 15 -23 19 -23 5z"/>
<path d="M11678 4119 c-2 -7 109 -126 248 -265 183 -184 258 -254 275 -254 22
0 22 1 -7 31 -42 44 -244 242 -279 273 -16 15 -66 62 -109 104 -44 42 -76 71
-72 65 4 -7 2 -13 -3 -13 -6 0 -11 7 -11 15 0 9 -7 18 -15 21 -8 4 -13 10 -10
14 3 5 1 11 -4 14 -5 4 -11 1 -13 -5z"/>
<path d="M10462 4058 c-22 -123 -31 -267 -37 -588 l-6 -325 276 -272 277 -273
551 0 552 0 260 -260 260 -260 430 -2 430 -3 -4 -188 -3 -188 84 -85 84 -84
210 0 209 0 183 -181 182 -181 0 256 0 255 -132 3 -133 3 -2 235 -3 235 -172
167 -173 167 -102 1 c-57 0 -103 -4 -103 -9 0 -4 -12 -20 -26 -35 -40 -39
-103 -37 -138 5 -58 68 -16 159 73 159 36 0 47 -5 74 -35 l31 -35 110 0 111 0
182 -182 183 -183 2 -225 3 -225 108 -3 108 -3 -3 113 -3 113 -25 0 -25 0 -3
321 -2 320 -80 79 -80 80 -1634 -4 -1633 -3 -172 167 -171 168 0 221 c0 345
-10 566 -27 566 -9 0 -13 16 -13 56 0 37 -5 61 -16 71 -8 9 -13 21 -10 28 3 8
-2 16 -10 19 -11 4 -14 14 -10 33 3 16 2 34 -2 41 -5 7 -13 -11 -20 -50z"/>
<path d="M9836 4063 c-17 -134 -24 -328 -30 -843 l-7 -565 131 -130 130 -130
-1 -650 c-3 -1126 -12 -1696 -27 -1686 -11 6 -15 226 -23 1162 l-9 1154 -130
125 -131 125 -1 705 c-1 388 -4 672 -5 633 -3 -53 -8 -73 -17 -73 -10 0 -16
21 -21 70 -7 66 -20 97 -29 68 -2 -7 -7 -343 -10 -747 l-6 -735 137 -132 137
-131 -2 -554 c-3 -888 -14 -1669 -23 -1669 -14 0 -11 -30 4 -45 10 -10 49 -13
146 -14 l133 0 -6 447 c-3 246 -9 812 -12 1257 l-5 810 -105 105 -104 105 -2
650 c-1 358 -4 612 -7 565 -5 -75 -7 -80 -14 -47 -4 21 -12 35 -16 32 -5 -2
-12 20 -16 50 -4 38 -11 55 -21 55 -10 0 -14 12 -14 40 0 55 -17 50 -24 -7z"/>
<path d="M10176 4082 c-4 -11 -6 -24 -5 -28 1 -5 1 -30 0 -56 l-1 -48 -50 0
-50 0 0 65 c0 80 -15 85 -25 8 -4 -32 -11 -60 -15 -63 -5 -3 -10 -279 -11
-612 l-1 -607 102 -99 102 -99 -8 -1272 -7 -1271 121 0 121 0 -4 508 c-3 279
-7 626 -10 771 l-4 265 -29 23 c-36 27 -47 64 -32 107 11 34 54 66 90 66 36 0
79 -32 90 -66 15 -44 4 -80 -34 -109 l-31 -24 -3 -771 -4 -770 183 0 c176 0
182 1 201 22 10 13 143 147 294 299 l274 275 -1 495 c0 272 -4 502 -8 513 -4
10 -31 35 -61 55 -82 55 -95 78 -95 169 0 96 25 139 99 177 94 47 199 21 254
-63 38 -59 46 -90 38 -146 -8 -54 -66 -124 -125 -150 -38 -18 -40 -21 -45 -70
-3 -28 -8 -262 -11 -521 l-5 -470 -122 -120 c-68 -66 -203 -198 -302 -293
l-178 -172 1766 0 1766 0 0 456 c0 427 -1 456 -17 443 -18 -15 -186 -175 -287
-274 -75 -73 -104 -97 -91 -75 6 8 10 18 10 22 0 4 87 95 193 202 l192 194 0
73 1 74 -193 187 -193 187 -210 1 -210 0 -95 95 -95 95 -3 163 c-2 89 -5 168
-7 174 -3 10 -92 11 -407 7 l-403 -6 -265 260 -265 261 -554 0 -555 1 -180
179 c-100 98 -232 228 -294 287 l-112 109 0 371 c0 326 -2 376 -17 410 l-17
39 -7 -30 c-5 -21 -7 -24 -9 -10 -2 17 -3 17 -10 -5 -4 -14 -8 -215 -9 -446
l-1 -421 309 -308 c170 -169 315 -311 322 -316 7 -4 267 -8 578 -9 l566 -1
258 -257 257 -257 333 -5 332 -5 -4 -548 -4 -549 104 -104 104 -104 232 0
c149 0 233 -4 233 -10 0 -10 -220 -17 -402 -13 l-87 2 -77 73 c-42 40 -91 88
-108 106 l-31 34 -5 531 -5 532 -316 5 -316 5 -264 257 -264 258 -570 0 -570
0 -335 329 -335 328 -3 474 c-2 277 -7 484 -12 499 -6 14 -12 47 -15 74 -6 57
-11 66 -19 38z m-6 -178 c0 -12 -10 -14 -47 -12 -66 4 -70 28 -4 28 39 0 51
-4 51 -16z m2628 -2509 c36 -30 46 -75 28 -118 -20 -48 -42 -62 -102 -62 l-52
0 -317 -310 c-175 -171 -323 -313 -329 -317 -6 -4 -69 -8 -141 -8 l-130 -1
-142 -137 -141 -137 -5 -118 c-2 -68 -9 -123 -16 -130 -8 -8 -11 24 -11 125
l0 137 149 150 149 151 135 0 135 0 317 313 318 314 -13 37 c-33 100 87 179
168 111z m1187 -845 c3 -5 -1 -10 -9 -10 -9 0 -16 5 -16 10 0 6 4 10 9 10 6 0
13 -4 16 -10z m-1560 -24 c28 -12 27 -13 -26 -8 -48 4 -60 1 -78 -17 -11 -11
-21 -30 -21 -41 0 -11 -4 -20 -9 -20 -13 0 -1 41 18 64 31 35 68 43 116 22z
m-1 -42 c21 -21 25 -78 6 -97 -15 -17 -83 -10 -97 9 -43 59 40 140 91 88z m52
-10 c4 -14 4 -43 1 -65 -5 -37 -2 -43 46 -90 31 -31 47 -53 41 -59 -6 -6 -28
9 -59 40 -43 43 -54 49 -80 45 l-30 -6 31 15 c17 7 34 21 38 31 10 28 7 90 -6
103 -9 9 -9 12 0 12 6 0 15 -12 18 -26z m-133 -119 c18 -8 25 -14 16 -15 -29
0 -69 39 -68 68 1 25 1 25 10 -6 7 -23 20 -38 42 -47z m305 -124 c3 -8 -3 -9
-20 -3 -12 5 -29 7 -37 4 -8 -3 -11 0 -7 6 8 14 59 8 64 -7z m65 2 c-7 -2 -21
-2 -30 0 -10 3 -4 5 12 5 17 0 24 -2 18 -5z"/>
<path d="M12675 1377 c-57 -48 -20 -147 55 -147 44 0 84 40 84 83 0 76 -82
114 -139 64z m100 -12 c46 -45 19 -115 -45 -115 -65 0 -94 79 -44 119 35 27
59 26 89 -4z"/>
<path d="M11316 4066 c-3 -14 -16 -28 -28 -32 -21 -6 -21 -7 -3 -20 29 -22 10
-29 -82 -30 -56 0 -87 -5 -92 -13 -5 -8 -26 -11 -57 -9 l-49 3 -3 43 c-3 41
-15 55 -25 30 -2 -7 -5 -145 -6 -307 l-2 -294 118 -119 118 -118 1597 0 1598
0 0 45 0 45 -1292 0 -1293 0 -108 106 c-107 105 -109 105 -147 99 -117 -20
-184 116 -98 197 41 38 71 44 119 22 59 -26 99 -110 67 -142 -10 -10 10 -35
92 -117 l105 -105 1277 0 1278 0 0 22 0 21 -1144 -6 -1144 -7 -27 22 c-15 12
-80 73 -144 136 -280 276 -454 437 -468 434 -10 -2 -14 2 -10 11 6 15 -21 47
-39 47 -5 0 -14 10 -19 23 -7 15 -17 21 -32 19 -12 -2 -24 2 -28 8 -11 17 -22
11 -29 -14z m69 -16 c3 -5 1 -10 -4 -10 -6 0 -11 5 -11 10 0 6 2 10 4 10 3 0
8 -4 11 -10z m-25 -34 c0 -8 12 -17 28 -19 16 -2 9 -5 -20 -6 -42 -1 -48 2
-48 19 0 13 7 20 20 20 11 0 20 -6 20 -14z"/>
<path d="M9245 4070 c-3 -5 -1 -10 4 -10 6 0 11 5 11 10 0 6 -2 10 -4 10 -3 0
-8 -4 -11 -10z"/>
<path d="M9350 4066 c0 -2 7 -9 15 -16 9 -7 15 -8 15 -2 0 5 -7 12 -15 16 -8
3 -15 4 -15 2z"/>
<path d="M11140 4040 c-30 -6 -31 -8 -10 -10 59 -7 80 -5 80 7 0 14 -15 15
-70 3z"/>
<path d="M9140 4007 c0 -27 -11 -44 -61 -95 -34 -34 -65 -62 -70 -62 -5 0 -9
-106 -9 -236 l0 -235 265 -262 265 -261 0 -200 0 -199 137 -138 136 -138 -7
-1061 c-3 -583 -9 -1074 -13 -1090 l-5 -30 52 0 53 0 -6 703 c-4 386 -7 892
-7 1125 l0 423 -139 137 -139 137 -4 748 c-5 715 -8 791 -32 766 -5 -5 -14
-68 -15 -106 -1 -20 -6 -23 -46 -23 l-45 0 0 65 c0 53 -3 65 -16 65 -10 0 -14
-5 -10 -15 4 -13 2 -14 -14 -5 -18 10 -19 9 -9 -17 23 -60 -10 -125 -71 -143
-31 -9 -95 3 -105 20 -3 5 -13 7 -23 4 -14 -5 -14 -4 -3 4 12 9 13 13 1 26 -7
9 -14 37 -17 62 -4 54 -9 64 -29 64 -9 0 -14 -11 -14 -33z"/>
<path d="M11481 3654 c-28 -35 -26 -69 4 -99 48 -49 125 -16 125 53 0 69 -87
99 -129 46z"/>
<path d="M6520 2933 c-26 -9 -40 -35 -40 -74 0 -69 73 -101 126 -56 68 59 0
161 -86 130z"/>
</g>
</svg>
